<?xml version="1.0" encoding="UTF-8"?>
<svg width="285px" height="196px" viewBox="0 0 285 196" version="1.1" xmlns="http://www.w3.org/2000/svg" xmlns:xlink="http://www.w3.org/1999/xlink">
    <!-- Generator: Sketch 51.3 (57544) - http://www.bohemiancoding.com/sketch -->
    <title>cartao_verso_topo</title>
    <desc>Created with Sketch.</desc>
    <defs>
        <rect id="path-1" x="0" y="0" width="284.646" height="195.014"></rect>
        <rect id="path-3" x="0" y="0" width="284.646" height="195.014"></rect>
    </defs>
    <g id="Page-1" stroke="none" stroke-width="1" fill="none" fill-rule="evenodd">
        <g id="cartao_verso_topo">
            <g id="Layer_2" transform="translate(52.000000, 70.000000)" fill="#FFB300" fill-rule="nonzero">
                <polygon id="Shape" points="16.79 39.7 16.79 40.171 0.632 40.171 0.632 39.7 2.806 38.378 2.806 7.766 0.728 6.586 0.728 6.114 14.143 1.908 14.616 1.908 14.616 38.378"></polygon>
                <path d="M50.755,37.577 L50.755,38.048 L39.935,40.646 L39.463,40.646 L37.15,36.585 C33.939,39.228 30.535,40.646 27.607,40.646 C23.401,40.646 20.19,37.77 20.19,33.375 L20.19,17.877 L18.112,16.46 L18.112,15.988 L31.527,13.389 L32.001,13.389 L32.001,32.143 C32.001,34.222 32.946,35.546 34.363,35.546 C35.306,35.546 36.014,35.31 36.675,34.932 L36.675,17.876 L34.598,16.459 L34.598,15.987 L48.015,13.387 L48.485,13.387 L48.485,36.302 L50.755,37.577 Z" id="Shape"></path>
                <polygon id="Shape" points="79.761 39.7 79.761 40.171 51.843 40.171 51.702 39.7 65.542 15.608 62.471 15.608 53.73 21.183 53.259 21.183 52.738 14.332 52.738 13.859 79.288 13.859 79.43 14.332 65.636 38.425 69.981 38.425 78.955 33.181 79.383 33.181"></polygon>
                <path d="M108.153,34.318 L108.672,34.835 C105.365,38.095 101.446,40.646 94.595,40.646 C86.518,40.646 81.274,35.258 81.274,27.183 C81.274,18.914 87.32,13.387 96.249,13.387 C104.045,13.387 109.144,18.539 109.144,26.239 L93.13,26.239 L93.13,26.379 C93.13,31.482 96.06,35.921 101.257,35.921 C103.336,35.919 106.312,35.402 108.153,34.318 M93.13,25.105 L97.526,24.585 C97.526,17.356 97.146,15.136 95.539,15.136 C93.651,15.136 93.179,17.875 93.13,25.105" id="Shape"></path>
                <path d="M127.051,39.701 L127.051,40.172 L110.896,40.172 L110.896,39.701 L113.068,38.379 L113.068,17.923 L110.986,16.505 L110.986,16.034 L124.405,13.386 L124.879,13.386 L124.879,38.378 L127.051,39.701 Z M112.499,6.256 C112.499,2.902 115.051,0.681 118.972,0.681 C122.798,0.681 125.35,2.902 125.35,6.256 C125.35,9.705 122.799,11.925 118.972,11.925 C115.052,11.926 112.499,9.706 112.499,6.256 Z" id="Shape"></path>
                <path d="M153.88,14.24 L152.797,23.027 L152.227,22.885 C151.283,21.796 149.015,20.804 145.708,20.804 C144.622,20.804 143.679,20.901 142.873,21.138 L142.873,38.143 L145.615,39.701 L145.615,40.176 L128.89,40.176 L128.89,39.701 L131.063,38.38 L131.063,18.111 L128.988,16.505 L128.988,16.035 L141.224,13.387 L141.696,13.387 L142.452,18.727 C145.332,15.181 148.358,13.387 150.626,13.387 C151.9,13.387 153.032,13.72 153.88,14.24" id="Shape"></path>
                <path d="M182.747,37.577 L182.747,38.048 L171.88,40.647 L171.41,40.647 L169.235,36.915 C166.546,39.324 163.425,40.647 160.735,40.647 C156.244,40.647 153.364,38.144 153.364,34.934 C153.364,29.453 159.363,25.719 168.668,25.247 L168.668,21.939 C168.668,19.531 166.119,17.876 162.198,17.876 C159.929,17.876 158.133,18.208 155.538,18.869 L155.346,18.159 C159.504,15.326 164.891,13.39 169.33,13.39 C175.711,13.39 180.481,16.271 180.481,20.663 L180.481,36.303 L182.747,37.577 Z M167.441,36.016 C167.867,36.016 168.291,35.919 168.668,35.78 L168.668,26.569 C166.262,27.324 164.844,29.356 164.844,32.38 C164.843,33.939 165.269,36.016 167.441,36.016 Z" id="Shape"></path>
                <path d="M47.145,58.452 L46.045,55.796 L41.953,55.796 L40.876,58.452 L39.359,58.452 L43.252,48.668 L44.748,48.668 L48.641,58.452 L47.145,58.452 Z M44.009,50.285 L42.371,54.556 L45.626,54.556 L44.009,50.285 Z" id="Shape"></path>
                <path d="M57.05,50.804 C56.55,50.465 56.329,50.365 55.853,50.224 C55.352,50.064 54.931,50.022 54.512,50.022 C53.295,50.022 52.553,50.465 52.553,51.205 C52.553,51.405 52.596,51.585 52.677,51.705 C52.958,52.126 53.276,52.303 55.135,53.201 C56.927,54.081 57.511,54.737 57.511,55.917 C57.511,57.616 56.193,58.634 54.034,58.634 C53.318,58.634 52.639,58.531 52.079,58.334 C51.68,58.173 51.4,58.031 50.721,57.616 L51.4,56.316 C52,56.756 52.26,56.915 52.639,57.074 C53.12,57.276 53.68,57.393 54.218,57.393 C55.336,57.393 55.993,56.914 55.993,56.117 C55.993,55.476 55.677,55.06 54.917,54.698 L53.181,53.859 C51.723,53.162 51.061,52.361 51.061,51.342 C51.061,49.763 52.42,48.746 54.537,48.746 C55.157,48.746 55.775,48.824 56.316,48.984 C56.756,49.104 56.994,49.222 57.592,49.544 L57.05,50.804 Z" id="Shape"></path>
                <polygon id="Shape" points="64.46 50.162 64.46 58.449 62.958 58.449 62.958 50.162 59.568 50.162 59.568 48.907 67.853 48.907 67.853 50.162"></polygon>
                <path d="M76.32,58.452 L73.8,54.556 L72.427,54.556 L72.427,58.452 L70.908,58.452 L70.908,48.907 L74.121,48.907 C76.414,48.907 77.671,49.865 77.671,51.622 C77.671,53.101 76.774,54.215 75.436,54.437 L78.072,58.452 L76.32,58.452 Z M75.463,50.424 C75.142,50.189 75.021,50.164 73.926,50.164 L72.428,50.164 L72.428,53.3 L73.926,53.3 C74.901,53.3 75.099,53.262 75.521,52.903 C75.879,52.583 76.04,52.201 76.04,51.682 C76.041,51.122 75.838,50.701 75.463,50.424 Z" id="Shape"></path>
                <path d="M85.688,58.628 C82.613,58.628 80.396,56.554 80.396,53.677 C80.396,50.822 82.612,48.727 85.688,48.727 C88.743,48.727 90.979,50.822 90.979,53.677 C90.975,56.554 88.74,58.628 85.688,58.628 M85.688,50.004 C83.592,50.004 81.992,51.583 81.992,53.678 C81.992,55.776 83.592,57.371 85.688,57.371 C87.784,57.371 89.36,55.775 89.36,53.678 C89.357,51.581 87.783,50.004 85.688,50.004" id="Shape"></path>
                <polygon id="Shape" points="94.871 58.452 94.871 48.907 96.392 48.907 96.392 57.19 100.903 57.19 100.903 58.449 94.871 58.449"></polygon>
                <path d="M108.111,58.628 C105.036,58.628 102.819,56.554 102.819,53.677 C102.819,50.822 105.035,48.727 108.111,48.727 C111.167,48.727 113.403,50.822 113.403,53.677 C113.403,56.554 111.167,58.628 108.111,58.628 M108.111,50.004 C106.012,50.004 104.418,51.583 104.418,53.678 C104.418,55.776 106.013,57.371 108.111,57.371 C110.207,57.371 111.784,55.775 111.784,53.678 C111.784,51.581 110.207,50.004 108.111,50.004" id="Shape"></path>
                <path d="M124.646,58.292 C123.802,58.489 122.627,58.651 121.831,58.651 C118.558,58.651 116.142,56.515 116.142,53.661 C116.142,50.845 118.494,48.747 121.688,48.747 C122.451,48.747 123.346,48.849 123.885,48.97 C124.364,49.089 124.647,49.205 125.304,49.545 L124.664,50.805 C124.362,50.624 124.144,50.502 124.006,50.443 C123.387,50.186 122.468,49.984 121.729,49.984 C119.435,49.984 117.736,51.52 117.736,53.582 C117.736,55.756 119.612,57.392 122.066,57.392 C122.546,57.392 122.967,57.354 123.905,57.193 L123.905,54.18 L125.426,54.18 L125.426,58.072 C125.084,58.171 124.825,58.25 124.646,58.292" id="Shape"></path>
                <rect id="Rectangle-path" x="130.16" y="48.907" width="1.516" height="9.546"></rect>
                <path d="M142.699,58.452 L141.598,55.796 L137.506,55.796 L136.426,58.452 L134.91,58.452 L138.804,48.668 L140.3,48.668 L144.195,58.452 L142.699,58.452 Z M139.562,50.285 L137.924,54.556 L141.183,54.556 L139.562,50.285 Z" id="Shape"></path>
            </g>
            <g id="Layer_3">
                <g id="Group">
                    <g id="Clipped">
                        <mask id="mask-2" fill="white">
                            <use xlink:href="#path-1"></use>
                        </mask>
                        <g id="SVGID_1_"></g>
                        <path d="M263.646,180.014 L263.646,195.014 M263.646,15 L263.646,0 M21,180.014 L21,195.014 M21,15 L21,0 M269.646,174.014 L284.646,174.014 M15,174.014 L0,174.014 M269.646,21 L284.646,21 M15,21 L0,21" id="Shape" stroke="#FFFFFF" stroke-width="1.25" mask="url(#mask-2)"></path>
                    </g>
                    <g id="Clipped">
                        <mask id="mask-4" fill="white">
                            <use xlink:href="#path-3"></use>
                        </mask>
                        <g id="SVGID_1_"></g>
                        <path d="M263.646,180.014 L263.646,195.014 M263.646,15 L263.646,0 M21,180.014 L21,195.014 M21,15 L21,0 M269.646,174.014 L284.646,174.014 M15,174.014 L0,174.014 M269.646,21 L284.646,21 M15,21 L0,21" id="Shape" stroke="#000000" stroke-width="0.25" mask="url(#mask-4)"></path>
                    </g>
                </g>
            </g>
        </g>
    </g>
</svg>