<?xml version="1.0" encoding="utf-8"?>
<!-- Generator: Adobe Illustrator 16.0.0, SVG Export Plug-In . SVG Version: 6.00 Build 0)  -->
<!DOCTYPE svg PUBLIC "-//W3C//DTD SVG 1.1//EN" "http://www.w3.org/Graphics/SVG/1.1/DTD/svg11.dtd">
<svg version="1.1" xmlns="http://www.w3.org/2000/svg" xmlns:xlink="http://www.w3.org/1999/xlink" x="0px" y="0px" width="800px"
	 height="399.98px" viewBox="-334.471 -167.162 800 399.98" enable-background="new -334.471 -167.162 800 399.98"
	 xml:space="preserve">
<g id="luzeira">
	<g>
		<path d="M-211.544,78.781v1.777h-60.883v-1.777l8.191-4.98V-41.547l-7.828-4.445v-1.777l50.547-15.848h1.781V73.801
			L-211.544,78.781z"/>
		<path d="M-83.563,70.781v1.773l-40.77,9.789h-1.777l-8.715-15.305c-12.102,9.961-24.926,15.305-35.961,15.305
			c-15.848,0-27.945-10.84-27.945-27.402V-3.449l-7.832-5.34v-1.777l50.551-9.793h1.785v70.664c0,7.836,3.559,12.824,8.898,12.824
			c3.555,0,6.223-0.891,8.711-2.312v-64.27l-7.824-5.34v-1.777l50.555-9.797h1.77v86.344L-83.563,70.781z"/>
		<path d="M25.73,78.781v1.777H-79.462l-0.535-1.777l52.152-90.777h-11.574l-32.93,21.008h-1.777l-1.961-25.816v-1.785H23.948
			l0.535,1.785l-51.977,90.781h16.375l33.812-19.758h1.617L25.73,78.781z"/>
		<path d="M132.714,58.5l1.953,1.949C122.21,72.731,107.445,82.34,81.624,82.34c-30.434,0-50.191-20.297-50.191-50.727
			c0-31.16,22.781-51.984,56.426-51.984c29.375,0,48.586,19.41,48.586,48.426h-60.34v0.527c0,19.223,11.039,35.953,30.621,35.953
			C114.562,64.535,125.773,62.586,132.714,58.5z M76.105,23.789l16.566-1.961c0-27.238-1.43-35.602-7.488-35.602
			C78.07-13.777,76.288-3.453,76.105,23.789z"/>
		<path d="M203.917,78.781v1.777h-60.871v-1.777l8.184-4.98V-3.273l-7.844-5.344v-1.773l50.562-9.977h1.785v94.168L203.917,78.781z
			 M149.089-47.234c0-12.637,9.613-21.008,24.387-21.008c14.418,0,24.031,8.371,24.031,21.008c0,12.996-9.609,21.359-24.031,21.359
			C158.706-25.875,149.089-34.238,149.089-47.234z"/>
		<path d="M305.011-17.152l-4.082,33.109l-2.145-0.535c-3.562-4.102-12.105-7.84-24.566-7.84c-4.09,0-7.645,0.363-10.68,1.258
			v64.074l10.332,5.871v1.785h-63.016v-1.785l8.184-4.98V-2.566l-7.82-6.051v-1.773l46.109-9.977h1.773l2.852,20.121
			c10.852-13.359,22.254-20.121,30.797-20.121C297.55-20.367,301.816-19.113,305.011-17.152z"/>
		<path d="M413.781,70.781v1.773l-40.945,9.789h-1.773l-8.195-14.059c-10.133,9.074-21.887,14.059-32.027,14.059
			c-16.922,0-27.773-9.43-27.773-21.527c0-20.652,22.605-34.719,57.664-36.496V11.856c0-9.074-9.605-15.309-24.379-15.309
			c-8.547,0-15.316,1.25-25.094,3.742l-0.723-2.676c15.664-10.676,35.965-17.969,52.691-17.969
			c24.043,0,42.016,10.855,42.016,27.406v58.926L413.781,70.781z M356.109,64.899c1.605,0,3.203-0.363,4.625-0.891V29.301
			c-9.07,2.848-14.41,10.504-14.41,21.898C346.32,57.071,347.925,64.899,356.109,64.899z"/>
	</g>
</g>
<g id="órbitas" display="none">
	<g display="inline">
		<path fill="none" stroke="#231F20" stroke-width="4.2036" stroke-miterlimit="10" d="M453.991,32.832
			c0,104.273-173.855,188.797-388.312,188.797c-214.449,0-388.305-84.523-388.305-188.797
			c0-104.277,173.855-188.801,388.305-188.801C280.136-155.969,453.991-71.445,453.991,32.832z"/>
		<path fill="none" stroke="#231F20" stroke-width="4.2036" stroke-miterlimit="10" d="M410.184,32.832
			c0,92.51-154.24,167.498-344.504,167.498c-190.257,0-344.498-74.988-344.498-167.498c0-92.513,154.241-167.5,344.498-167.5
			C255.944-134.668,410.184-59.68,410.184,32.832z"/>
		<path fill="none" stroke="#231F20" stroke-width="4.2036" stroke-miterlimit="10" d="M366.377,32.832
			c0,80.746-134.627,146.199-300.697,146.199c-166.065,0-300.692-65.453-300.692-146.199c0-80.749,134.627-146.2,300.692-146.2
			C231.75-113.368,366.377-47.917,366.377,32.832z"/>
		<path fill="none" stroke="#231F20" stroke-width="4.2036" stroke-miterlimit="10" d="M322.57,32.832
			c0,68.982-115.012,124.9-256.889,124.9c-141.873,0-256.885-55.918-256.885-124.9c0-68.984,115.012-124.9,256.885-124.9
			C207.558-92.068,322.57-36.152,322.57,32.832z"/>
		
			<ellipse fill="none" stroke="#231F20" stroke-width="4.2036" stroke-miterlimit="10" cx="65.683" cy="32.832" rx="213.079" ry="103.602"/>
		<path fill="none" stroke="#231F20" stroke-width="4.2036" stroke-miterlimit="10" d="M234.955,32.832
			c0,45.455-75.782,82.303-169.273,82.303c-93.489,0-169.272-36.848-169.272-82.303c0-45.456,75.783-82.3,169.272-82.3
			C159.173-49.468,234.955-12.624,234.955,32.832z"/>
		<path fill="none" stroke="#231F20" stroke-width="4.2036" stroke-miterlimit="10" d="M191.148,32.832
			c0,33.691-56.168,61.004-125.465,61.004S-59.782,66.524-59.782,32.832s56.168-61,125.465-61S191.148-0.859,191.148,32.832z"/>
	</g>
</g>
<g id="planeta" display="none">
	<g display="inline">
		<path fill="#007CFF" d="M-311.464,32.828c0,6.355-5.145,11.504-11.5,11.504c-6.359,0-11.508-5.148-11.508-11.504
			c0-6.352,5.148-11.5,11.508-11.5C-316.608,21.328-311.464,26.477-311.464,32.828z"/>
	</g>
	<g display="inline">
		<path fill="#007CFF" d="M465.529,32.828c0,6.355-5.141,11.504-11.5,11.504c-6.352,0-11.5-5.148-11.5-11.504
			c0-6.352,5.148-11.5,11.5-11.5C460.388,21.328,465.529,26.477,465.529,32.828z"/>
	</g>
	<g display="inline">
		<path fill="#007CFF" d="M77.171-155.679c0,6.342-5.137,11.482-11.484,11.482c-6.35,0-11.49-5.141-11.49-11.482
			s5.141-11.482,11.49-11.482C72.034-167.162,77.171-162.021,77.171-155.679z"/>
	</g>
	<g display="inline">
		<path fill="#007CFF" d="M77.171,221.354c0,6.344-5.137,11.484-11.483,11.484c-6.35,0-11.49-5.141-11.49-11.484
			c0-6.34,5.141-11.48,11.49-11.48C72.034,209.873,77.171,215.014,77.171,221.354z"/>
	</g>
</g>
<g id="astrologia" display="none">
	<g display="inline">
		<path d="M-97.165,149.438l-4.145-10.008h-15.418l-4.059,10.008h-5.715l14.668-36.867h5.637l14.668,36.867H-97.165z
			 M-108.981,118.664l-6.172,16.094h12.266L-108.981,118.664z"/>
		<path d="M-59.841,120.621c-1.883-1.277-2.715-1.656-4.512-2.184c-1.887-0.605-3.473-0.762-5.051-0.762
			c-4.586,0-7.383,1.668-7.383,4.453c0,0.758,0.164,1.43,0.469,1.883c1.059,1.586,2.258,2.254,9.262,5.641
			c6.75,3.312,8.953,5.789,8.953,10.23c0,6.406-4.969,10.238-13.102,10.238c-2.699,0-5.258-0.383-7.367-1.129
			c-1.504-0.609-2.559-1.137-5.117-2.703l2.559-4.895c2.258,1.656,3.242,2.25,4.668,2.855c1.812,0.758,3.922,1.199,5.949,1.199
			c4.215,0,6.688-1.805,6.688-4.805c0-2.418-1.191-3.984-4.055-5.348l-6.539-3.16c-5.496-2.633-7.988-5.645-7.988-9.484
			c0-5.953,5.121-9.785,13.098-9.785c2.336,0,4.664,0.301,6.703,0.902c1.656,0.453,2.555,0.895,4.809,2.105L-59.841,120.621z"/>
		<path d="M-31.923,118.199v31.227h-5.66v-31.227h-12.773v-4.727h31.219v4.727H-31.923z"/>
		<path d="M12.769,149.438l-9.496-14.68h-5.176v14.68h-5.723v-35.965H4.484c8.637,0,13.375,3.609,13.375,10.23
			c0,5.566-3.379,9.77-8.422,10.605l9.93,15.129H12.769z M9.538,119.192c-1.211-0.891-1.664-0.98-5.793-0.98h-5.641v11.816h5.641
			c3.676,0,4.422-0.148,6.012-1.5c1.348-1.203,1.957-2.645,1.957-4.598C11.714,121.817,10.952,120.231,9.538,119.192z"/>
		<path d="M48.062,150.106c-11.586,0-19.941-7.82-19.941-18.66c0-10.758,8.352-18.652,19.941-18.652
			c11.512,0,19.934,7.895,19.934,18.652C67.984,142.285,59.566,150.106,48.062,150.106z M48.062,117.61
			c-7.898,0-13.926,5.949-13.926,13.84c0,7.906,6.027,13.918,13.926,13.918s13.836-6.012,13.836-13.918
			C61.89,123.547,55.96,117.61,48.062,117.61z"/>
		<path d="M82.667,149.438v-35.965h5.73v31.211h17v4.742h-22.73V149.438z"/>
		<path d="M132.554,150.106c-11.586,0-19.941-7.82-19.941-18.66c0-10.758,8.352-18.652,19.941-18.652
			c11.516,0,19.941,7.895,19.941,18.652C152.495,142.285,144.07,150.106,132.554,150.106z M132.554,117.61
			c-7.906,0-13.914,5.949-13.914,13.84c0,7.906,6.008,13.918,13.914,13.918c7.898,0,13.84-6.012,13.84-13.918
			C146.394,123.547,140.452,117.61,132.554,117.61z"/>
		<path d="M194.859,148.832c-3.176,0.746-7.602,1.355-10.609,1.355c-12.336,0-21.438-8.047-21.438-18.805
			c0-10.613,8.863-18.516,20.898-18.516c2.875,0,6.25,0.383,8.281,0.84c1.801,0.449,2.867,0.887,5.348,2.168l-2.414,4.746
			c-1.137-0.68-1.957-1.141-2.477-1.363c-2.332-0.969-5.797-1.727-8.586-1.727c-8.641,0-15.043,5.785-15.043,13.551
			c0,8.191,7.07,14.355,16.316,14.355c1.812,0,3.398-0.141,6.93-0.75v-11.352h5.727V148
			C196.511,148.379,195.534,148.676,194.859,148.832z"/>
		<path d="M215.632,149.438v-35.965h5.711v35.965H215.632z"/>
		<path d="M262.882,149.438l-4.148-10.008H243.32l-4.07,10.008h-5.715l14.668-36.867h5.645l14.672,36.867H262.882z M251.058,118.664
			l-6.168,16.094h12.277L251.058,118.664z"/>
	</g>
</g>
</svg>
