<?xml version="1.0" encoding="utf-8"?>
<!-- Generator: Adobe Illustrator 16.0.0, SVG Export Plug-In . SVG Version: 6.00 Build 0)  -->
<!DOCTYPE svg PUBLIC "-//W3C//DTD SVG 1.1//EN" "http://www.w3.org/Graphics/SVG/1.1/DTD/svg11.dtd">
<svg version="1.1" id="luzeira" xmlns="http://www.w3.org/2000/svg" xmlns:xlink="http://www.w3.org/1999/xlink" x="0px" y="0px"
	 width="800px" height="399.98px" viewBox="-334.471 -167.162 800 399.98" enable-background="new -334.471 -167.162 800 399.98"
	 xml:space="preserve">
<g>
	<path fill="#FFB300" d="M-211.544,78.781v1.777h-60.883v-1.777l8.191-4.98V-41.547l-7.828-4.445v-1.777l50.547-15.848h1.781V73.801
		L-211.544,78.781z"/>
	<path fill="#FFB300" d="M-83.563,70.781v1.773l-40.77,9.789h-1.777l-8.715-15.305c-12.102,9.961-24.926,15.305-35.961,15.305
		c-15.848,0-27.945-10.84-27.945-27.402V-3.449l-7.832-5.34v-1.777l50.551-9.793h1.785v70.664c0,7.836,3.559,12.824,8.898,12.824
		c3.555,0,6.223-0.891,8.711-2.312v-64.27l-7.824-5.34v-1.777l50.555-9.797h1.77v86.344L-83.563,70.781z"/>
	<path fill="#FFB300" d="M25.73,78.781v1.777H-79.462l-0.535-1.777l52.152-90.777h-11.574l-32.93,21.008h-1.777l-1.961-25.816
		v-1.785H23.948l0.535,1.785l-51.977,90.781h16.375l33.812-19.758h1.617L25.73,78.781z"/>
	<path fill="#FFB300" d="M132.714,58.5l1.953,1.949C122.21,72.731,107.445,82.34,81.624,82.34
		c-30.434,0-50.191-20.297-50.191-50.727c0-31.16,22.781-51.984,56.426-51.984c29.375,0,48.586,19.41,48.586,48.426h-60.34v0.527
		c0,19.223,11.039,35.953,30.621,35.953C114.562,64.535,125.773,62.586,132.714,58.5z M76.105,23.789l16.566-1.961
		c0-27.238-1.43-35.602-7.488-35.602C78.07-13.777,76.288-3.453,76.105,23.789z"/>
	<path fill="#FFB300" d="M203.917,78.781v1.777h-60.871v-1.777l8.184-4.98V-3.273l-7.844-5.344v-1.773l50.562-9.977h1.785v94.168
		L203.917,78.781z M149.089-47.234c0-12.637,9.613-21.008,24.387-21.008c14.418,0,24.031,8.371,24.031,21.008
		c0,12.996-9.609,21.359-24.031,21.359C158.706-25.875,149.089-34.238,149.089-47.234z"/>
	<path fill="#FFB300" d="M305.011-17.152l-4.082,33.109l-2.145-0.535c-3.562-4.102-12.105-7.84-24.566-7.84
		c-4.09,0-7.645,0.363-10.68,1.258v64.074l10.332,5.871v1.785h-63.016v-1.785l8.184-4.98V-2.566l-7.82-6.051v-1.773l46.109-9.977
		h1.773l2.852,20.121c10.852-13.359,22.254-20.121,30.797-20.121C297.55-20.367,301.816-19.113,305.011-17.152z"/>
	<path fill="#FFB300" d="M413.781,70.781v1.773l-40.945,9.789h-1.773l-8.195-14.059c-10.133,9.074-21.887,14.059-32.027,14.059
		c-16.922,0-27.773-9.43-27.773-21.527c0-20.652,22.605-34.719,57.664-36.496V11.856c0-9.074-9.605-15.309-24.379-15.309
		c-8.547,0-15.316,1.25-25.094,3.742l-0.723-2.676c15.664-10.676,35.965-17.969,52.691-17.969c24.043,0,42.016,10.855,42.016,27.406
		v58.926L413.781,70.781z M356.109,64.899c1.605,0,3.203-0.363,4.625-0.891V29.301c-9.07,2.848-14.41,10.504-14.41,21.898
		C346.32,57.071,347.925,64.899,356.109,64.899z"/>
</g>
</svg>
