<?xml version="1.0" encoding="utf-8"?>
<!-- Generator: Adobe Illustrator 16.0.0, SVG Export Plug-In . SVG Version: 6.00 Build 0)  -->
<!DOCTYPE svg PUBLIC "-//W3C//DTD SVG 1.1//EN" "http://www.w3.org/Graphics/SVG/1.1/DTD/svg11.dtd">
<svg version="1.1" id="Layer_1" xmlns="http://www.w3.org/2000/svg" xmlns:xlink="http://www.w3.org/1999/xlink" x="0px" y="0px"
	 width="800px" height="400px" viewBox="0 0 800 400" enable-background="new 0 0 800 400" xml:space="preserve">
<path fill="none" stroke="#231F20" stroke-width="0.5" stroke-miterlimit="10" d="M789.309,200.998
	c0,104.273-173.855,188.797-388.312,188.797c-214.449,0-388.305-84.523-388.305-188.797c0-104.277,173.855-188.801,388.305-188.801
	C615.453,12.197,789.309,96.721,789.309,200.998z"/>
<path fill="none" stroke="#231F20" stroke-width="0.5" stroke-miterlimit="10" d="M745.501,200.998
	c0,92.51-154.24,167.498-344.504,167.498c-190.257,0-344.498-74.988-344.498-167.498c0-92.513,154.241-167.5,344.498-167.5
	C591.261,33.498,745.501,108.485,745.501,200.998z"/>
<path fill="none" stroke="#231F20" stroke-width="0.5" stroke-miterlimit="10" d="M701.694,200.998
	c0,80.746-134.627,146.199-300.697,146.199c-166.065,0-300.692-65.453-300.692-146.199c0-80.749,134.627-146.2,300.692-146.2
	C567.067,54.798,701.694,120.249,701.694,200.998z"/>
<path fill="none" stroke="#231F20" stroke-width="0.5" stroke-miterlimit="10" d="M657.887,200.998
	c0,68.982-115.012,124.9-256.889,124.9c-141.873,0-256.885-55.918-256.885-124.9c0-68.984,115.012-124.9,256.885-124.9
	C542.875,76.098,657.887,132.014,657.887,200.998z"/>
<ellipse fill="none" stroke="#231F20" stroke-width="0.5" stroke-miterlimit="10" cx="401" cy="200.998" rx="213.079" ry="103.602"/>
<path fill="none" stroke="#231F20" stroke-width="0.5" stroke-miterlimit="10" d="M570.272,200.998
	c0,45.455-75.782,82.303-169.273,82.303c-93.489,0-169.272-36.848-169.272-82.303c0-45.456,75.783-82.3,169.272-82.3
	C494.49,118.698,570.272,155.542,570.272,200.998z"/>
<path fill="none" stroke="#231F20" stroke-width="0.5" stroke-miterlimit="10" d="M526.465,200.998
	c0,33.691-56.168,61.004-125.465,61.004s-125.465-27.312-125.465-61.004s56.168-61,125.465-61S526.465,167.307,526.465,200.998z"/>
</svg>
