<?xml version="1.0" encoding="UTF-8"?>
<svg width="285px" height="196px" viewBox="0 0 285 196" version="1.1" xmlns="http://www.w3.org/2000/svg" xmlns:xlink="http://www.w3.org/1999/xlink">
    <!-- Generator: Sketch 51.3 (57544) - http://www.bohemiancoding.com/sketch -->
    <title>tipografia_cartao</title>
    <desc>Created with Sketch.</desc>
    <defs></defs>
    <g id="Page-1" stroke="none" stroke-width="1" fill="none" fill-rule="evenodd">
        <g id="tipografia_cartao" transform="translate(-1.000000, 0.000000)" fill-rule="nonzero">
            <polygon id="Shape" fill="#FFFFFF" points="48.248 88.38 48.248 97.012 49.431 97.376 49.431 97.506 45.258 97.506 45.258 97.376 46.714 97.012 46.714 89.238 43.035 95.972 42.515 95.972 38.875 89.147 38.875 97.012 40.317 97.376 40.317 97.506 37.146 97.506 37.146 97.376 38.394 97.012 38.394 88.38 37.146 88.016 37.146 87.886 39.928 87.886 43.386 94.373 46.935 87.886 49.431 87.886 49.431 88.016"></polygon>
            <path d="M57.113,97.091 L57.113,97.221 L54.968,97.637 L54.838,97.637 L54.643,96.662 C53.941,97.312 53.109,97.637 52.225,97.637 C51.003,97.637 50.171,97.039 50.171,96.012 C50.171,94.53 51.939,93.516 54.604,93.451 L54.604,92.645 C54.604,91.618 53.889,90.942 52.784,90.942 C52.004,90.942 51.393,91.072 50.808,91.319 L50.756,91.15 C51.497,90.643 52.524,90.292 53.512,90.292 C54.994,90.292 56.034,91.15 56.034,92.45 L56.034,96.701 L57.113,97.091 Z M52.888,97 C53.499,97 54.071,96.779 54.604,96.324 L54.604,93.698 C52.758,93.789 51.666,94.53 51.666,95.752 C51.666,96.584 52.121,97 52.888,97 Z" id="Shape_1_" fill="#FFFFFF"></path>
            <path d="M63.613,90.578 L63.431,91.878 L63.301,91.839 C62.95,91.475 62.391,91.241 61.689,91.241 C61.065,91.241 60.571,91.449 60.155,91.904 L60.155,97.013 L61.364,97.377 L61.364,97.507 L57.737,97.507 L57.737,97.377 L58.725,97.013 L58.725,91.215 L57.763,90.838 L57.763,90.708 L59.934,90.292 L60.064,90.292 L60.116,91.592 C60.779,90.747 61.611,90.292 62.521,90.292 C62.937,90.292 63.314,90.382 63.613,90.578 Z" id="Shape_2_" fill="#FFFFFF"></path>
            <path d="M67.578,97.377 L67.578,97.507 L64.185,97.507 L64.185,97.377 L65.173,97.013 L65.173,91.254 L64.211,90.838 L64.211,90.708 L66.473,90.292 L66.603,90.292 L66.603,97.013 L67.578,97.377 Z M65.03,88.237 C65.03,87.769 65.368,87.457 65.888,87.457 C66.395,87.457 66.733,87.769 66.733,88.237 C66.733,88.705 66.395,89.03 65.888,89.03 C65.368,89.031 65.03,88.706 65.03,88.237 Z" id="Shape_3_" fill="#FFFFFF"></path>
            <path d="M75.183,97.091 L75.183,97.221 L73.038,97.637 L72.908,97.637 L72.713,96.662 C72.011,97.312 71.179,97.637 70.295,97.637 C69.073,97.637 68.241,97.039 68.241,96.012 C68.241,94.53 70.009,93.516 72.674,93.451 L72.674,92.645 C72.674,91.618 71.959,90.942 70.854,90.942 C70.074,90.942 69.463,91.072 68.878,91.319 L68.826,91.15 C69.567,90.643 70.594,90.292 71.582,90.292 C73.064,90.292 74.104,91.15 74.104,92.45 L74.104,96.701 L75.183,97.091 Z M70.958,97 C71.569,97 72.141,96.779 72.674,96.324 L72.674,93.698 C70.828,93.789 69.736,94.53 69.736,95.752 C69.736,96.584 70.191,97 70.958,97 Z" id="Shape_4_" fill="#FFFFFF"></path>
            <path d="M84.127,97.377 L84.127,97.507 L80.643,97.507 L80.643,97.377 L81.618,97.013 L81.618,92.645 C81.618,91.618 80.942,90.942 79.915,90.942 C79.226,90.942 78.68,91.189 78.225,91.618 L78.225,97.013 L79.304,97.377 L79.304,97.507 L75.807,97.507 L75.807,97.377 L76.795,97.013 L76.795,91.254 L75.833,90.838 L75.833,90.708 L78.004,90.292 L78.134,90.292 L78.186,91.293 C78.914,90.643 79.824,90.292 80.721,90.292 C82.099,90.292 83.048,91.15 83.048,92.45 L83.048,97.013 L84.127,97.377 Z" id="Shape_5_" fill="#FFFFFF"></path>
            <path d="M91.577,97.091 L91.577,97.221 L89.432,97.637 L89.302,97.637 L89.107,96.662 C88.405,97.312 87.573,97.637 86.689,97.637 C85.467,97.637 84.635,97.039 84.635,96.012 C84.635,94.53 86.403,93.516 89.068,93.451 L89.068,92.645 C89.068,91.618 88.353,90.942 87.248,90.942 C86.468,90.942 85.857,91.072 85.272,91.319 L85.22,91.15 C85.961,90.643 86.988,90.292 87.976,90.292 C89.458,90.292 90.498,91.15 90.498,92.45 L90.498,96.701 L91.577,97.091 Z M87.352,97 C87.963,97 88.535,96.779 89.068,96.324 L89.068,93.698 C87.222,93.789 86.13,94.53 86.13,95.752 C86.128,96.584 86.583,97 87.352,97 Z" id="Shape_6_" fill="#FFFFFF"></path>
            <path d="M95.8,92.697 C95.8,89.733 97.595,87.757 100.285,87.757 C101.299,87.757 102.248,87.952 103.002,88.303 L102.911,89.642 L102.768,89.603 L100.351,88.16 C98.543,88.173 97.478,89.85 97.478,92.697 C97.478,95.544 98.543,97.221 100.351,97.234 L102.859,95.882 L103.003,95.843 L103.133,97.091 C102.483,97.377 101.547,97.637 100.286,97.637 C97.595,97.637 95.8,95.661 95.8,92.697 Z" id="Shape_7_" fill="#FFFFFF"></path>
            <path d="M110.869,97.091 L110.869,97.221 L108.724,97.637 L108.593,97.637 L108.398,96.662 C107.697,97.312 106.865,97.637 105.98,97.637 C104.759,97.637 103.927,97.039 103.927,96.012 C103.927,94.53 105.695,93.516 108.359,93.451 L108.359,92.645 C108.359,91.618 107.644,90.942 106.54,90.942 C105.76,90.942 105.148,91.072 104.564,91.319 L104.512,91.15 C105.253,90.643 106.28,90.292 107.268,90.292 C108.75,90.292 109.79,91.15 109.79,92.45 L109.79,96.701 L110.869,97.091 Z M106.645,97 C107.255,97 107.828,96.779 108.36,96.324 L108.36,93.698 C106.514,93.789 105.422,94.53 105.422,95.752 C105.421,96.584 105.876,97 106.645,97 Z" id="Shape_8_" fill="#FFFFFF"></path>
            <path d="M124.375,97.377 L124.375,97.507 L120.904,97.507 L120.904,97.377 L121.865,97.013 L121.865,92.645 C121.865,91.618 121.216,90.942 120.215,90.942 C119.5,90.942 118.954,91.228 118.486,91.709 C118.564,91.93 118.603,92.19 118.603,92.45 L118.603,97.013 L119.668,97.377 L119.668,97.507 L116.21,97.507 L116.21,97.377 L117.172,97.013 L117.172,92.645 C117.172,91.618 116.523,90.942 115.534,90.942 C114.871,90.942 114.35,91.189 113.909,91.605 L113.909,97.013 L114.975,97.377 L114.975,97.507 L111.491,97.507 L111.491,97.377 L112.479,97.013 L112.479,91.254 L111.516,90.838 L111.516,90.708 L113.688,90.292 L113.817,90.292 L113.87,91.28 C114.585,90.63 115.456,90.292 116.327,90.292 C117.276,90.292 118.03,90.734 118.381,91.449 C119.122,90.695 120.084,90.292 121.021,90.292 C122.359,90.292 123.295,91.15 123.295,92.45 L123.295,97.013 L124.375,97.377 Z" id="Shape_9_" fill="#FFFFFF"></path>
            <path d="M132.447,93.75 C132.447,95.999 131.148,97.637 129.015,97.637 C128.353,97.637 127.781,97.455 127.299,97.13 L127.299,99.613 L128.378,99.977 L128.378,100.107 L124.881,100.107 L124.881,99.977 L125.869,99.613 L125.869,91.254 L124.907,90.838 L124.907,90.708 L127.078,90.292 L127.208,90.292 L127.261,91.228 C127.898,90.591 128.664,90.292 129.47,90.292 C131.252,90.292 132.447,91.618 132.447,93.75 Z M130.889,94.088 C130.889,92.099 130.108,90.877 128.743,90.877 C128.222,90.877 127.742,91.085 127.3,91.514 L127.3,96.779 C127.729,97.13 128.21,97.312 128.77,97.312 C130.135,97.312 130.889,95.999 130.889,94.088 Z" id="Shape_10_" fill="#FFFFFF"></path>
            <path d="M133.684,93.958 C133.684,91.761 135.126,90.292 137.286,90.292 C139.444,90.292 140.888,91.761 140.888,93.958 C140.888,96.168 139.445,97.637 137.286,97.637 C135.126,97.637 133.684,96.168 133.684,93.958 Z M139.325,93.958 C139.325,91.761 138.609,90.617 137.284,90.617 C135.958,90.617 135.242,91.762 135.242,93.958 C135.242,96.154 135.957,97.312 137.284,97.312 C138.609,97.312 139.325,96.155 139.325,93.958 Z" id="Shape_11_" fill="#FFFFFF"></path>
            <path d="M147.164,91.904 L147.019,91.878 L144.9,90.617 C144.044,90.617 143.523,91.059 143.523,91.813 C143.523,93.399 147.812,93.568 147.812,95.7 C147.812,97.053 146.421,97.638 144.601,97.638 C143.73,97.638 142.691,97.404 142.093,97.092 L142.209,96.104 L142.353,96.13 L144.601,97.313 C145.759,97.313 146.449,96.832 146.449,96.039 C146.449,94.427 142.158,94.232 142.158,92.204 C142.158,90.969 143.236,90.293 144.9,90.293 C145.642,90.293 146.59,90.475 147.267,90.787 L147.164,91.904 Z" id="Shape_12_" fill="#FFFFFF"></path>
            <path d="M46.571,128.02 L46.571,128.11 L44.167,128.11 L44.167,128.02 L44.834,127.768 L44.834,124.744 C44.834,124.032 44.384,123.565 43.69,123.565 C43.195,123.565 42.816,123.762 42.492,124.094 C42.546,124.247 42.573,124.428 42.573,124.608 L42.573,127.768 L43.311,128.02 L43.311,128.11 L40.916,128.11 L40.916,128.02 L41.582,127.768 L41.582,124.744 C41.582,124.032 41.132,123.565 40.448,123.565 C39.989,123.565 39.629,123.735 39.323,124.024 L39.323,127.768 L40.061,128.02 L40.061,128.11 L37.648,128.11 L37.648,128.02 L38.332,127.768 L38.332,123.78 L37.666,123.493 L37.666,123.403 L39.169,123.114 L39.259,123.114 L39.295,123.799 C39.79,123.349 40.393,123.114 40.997,123.114 C41.654,123.114 42.176,123.421 42.419,123.916 C42.932,123.394 43.598,123.114 44.247,123.114 C45.175,123.114 45.822,123.709 45.822,124.608 L45.822,127.768 L46.571,128.02 Z" id="Shape_13_" fill="#92C5EB"></path>
            <path d="M51.061,123.311 L50.935,124.211 L50.845,124.186 C50.602,123.932 50.215,123.772 49.729,123.772 C49.297,123.772 48.955,123.916 48.667,124.231 L48.667,127.768 L49.504,128.02 L49.504,128.11 L46.992,128.11 L46.992,128.02 L47.676,127.768 L47.676,123.752 L47.01,123.49 L47.01,123.4 L48.513,123.113 L48.603,123.113 L48.639,124.011 C49.098,123.427 49.674,123.113 50.305,123.113 C50.592,123.113 50.853,123.176 51.061,123.311 Z" id="Shape_14_" fill="#92C5EB"></path>
            <path d="M57.217,128.02 L57.217,128.11 L54.804,128.11 L54.804,128.02 L55.479,127.768 L55.479,124.744 C55.479,124.032 55.011,123.565 54.299,123.565 C53.822,123.565 53.444,123.735 53.129,124.032 L53.129,127.768 L53.877,128.02 L53.877,128.11 L51.455,128.11 L51.455,128.02 L52.139,127.768 L52.139,123.78 L51.473,123.493 L51.473,123.403 L52.976,123.114 L53.066,123.114 L53.102,123.807 C53.606,123.356 54.236,123.114 54.857,123.114 C55.812,123.114 56.469,123.709 56.469,124.608 L56.469,127.768 L57.217,128.02 Z" id="Shape_15_" fill="#92C5EB"></path>
            <path d="M57.782,125.788 C57.782,124.185 58.79,123.113 60.285,123.113 C60.861,123.113 61.419,123.249 61.842,123.472 L61.788,124.3 L61.689,124.282 L60.33,123.337 C59.393,123.337 58.835,124.148 58.835,125.507 C58.835,126.903 59.456,127.695 60.411,127.695 C60.978,127.695 61.572,127.533 61.951,127.291 L62.032,127.391 C61.564,127.823 60.898,128.202 59.97,128.202 C58.673,128.199 57.782,127.236 57.782,125.788 Z" id="Shape_16_" fill="#92C5EB"></path>
            <path d="M67.296,127.822 L67.296,127.912 L65.811,128.199 L65.721,128.199 L65.586,127.525 C65.1,127.974 64.524,128.199 63.912,128.199 C63.066,128.199 62.49,127.786 62.49,127.074 C62.49,126.049 63.714,125.345 65.56,125.303 L65.56,124.743 C65.56,124.031 65.065,123.564 64.299,123.564 C63.759,123.564 63.336,123.654 62.931,123.824 L62.895,123.708 C63.408,123.355 64.12,123.113 64.804,123.113 C65.83,123.113 66.551,123.708 66.551,124.607 L66.551,127.55 L67.296,127.822 Z M64.371,127.758 C64.794,127.758 65.19,127.606 65.559,127.29 L65.559,125.473 C64.281,125.534 63.524,126.048 63.524,126.895 C63.524,127.471 63.839,127.758 64.371,127.758 Z" id="Shape_17_" fill="#92C5EB"></path>
            <path d="M76.649,128.02 L76.649,128.11 L74.245,128.11 L74.245,128.02 L74.911,127.768 L74.911,124.744 C74.911,124.032 74.461,123.565 73.768,123.565 C73.272,123.565 72.894,123.762 72.57,124.094 C72.624,124.247 72.651,124.428 72.651,124.608 L72.651,127.768 L73.389,128.02 L73.389,128.11 L70.994,128.11 L70.994,128.02 L71.66,127.768 L71.66,124.744 C71.66,124.032 71.21,123.565 70.526,123.565 C70.067,123.565 69.707,123.735 69.401,124.024 L69.401,127.768 L70.139,128.02 L70.139,128.11 L67.726,128.11 L67.726,128.02 L68.41,127.768 L68.41,123.78 L67.744,123.493 L67.744,123.403 L69.247,123.114 L69.337,123.114 L69.373,123.799 C69.868,123.349 70.471,123.114 71.075,123.114 C71.732,123.114 72.254,123.421 72.497,123.916 C73.01,123.394 73.676,123.114 74.325,123.114 C75.252,123.114 75.9,123.709 75.9,124.608 L75.9,127.768 L76.649,128.02 Z" id="Shape_18_" fill="#92C5EB"></path>
            <path d="M82.236,125.508 C82.236,127.067 81.336,128.199 79.86,128.199 C79.401,128.199 79.005,128.072 78.672,127.847 L78.672,129.566 L79.419,129.82 L79.419,129.91 L76.998,129.91 L76.998,129.82 L77.682,129.566 L77.682,123.779 L77.015,123.49 L77.015,123.4 L78.518,123.113 L78.608,123.113 L78.644,123.759 C79.085,123.32 79.616,123.113 80.174,123.113 C81.408,123.113 82.236,124.031 82.236,125.508 Z M81.156,125.742 C81.156,124.365 80.615,123.517 79.67,123.517 C79.31,123.517 78.977,123.663 78.671,123.958 L78.671,127.604 C78.968,127.846 79.301,127.973 79.688,127.973 C80.634,127.975 81.156,127.066 81.156,125.742 Z" id="Shape_19_" fill="#92C5EB"></path>
            <path d="M83.09,125.652 C83.09,124.131 84.089,123.113 85.585,123.113 C87.079,123.113 88.079,124.131 88.079,125.652 C88.079,127.181 87.079,128.199 85.585,128.199 C84.089,128.199 83.09,127.182 83.09,125.652 Z M86.998,125.652 C86.998,124.131 86.503,123.339 85.585,123.339 C84.667,123.339 84.17,124.131 84.17,125.652 C84.17,127.173 84.666,127.974 85.585,127.974 C86.502,127.975 86.998,127.173 86.998,125.652 Z" id="Shape_20_" fill="#92C5EB"></path>
            <path d="M92.424,124.23 L92.325,124.21 L90.858,123.337 C90.264,123.337 89.903,123.644 89.903,124.165 C89.903,125.265 92.874,125.381 92.874,126.856 C92.874,127.793 91.911,128.198 90.65,128.198 C90.046,128.198 89.326,128.036 88.912,127.819 L88.993,127.135 L89.092,127.153 L90.65,127.973 C91.451,127.973 91.928,127.639 91.928,127.09 C91.928,125.973 88.957,125.838 88.957,124.434 C88.957,123.58 89.705,123.112 90.857,123.112 C91.37,123.112 92.027,123.237 92.495,123.454 L92.424,124.23 Z" id="Shape_21_" fill="#92C5EB"></path>
            <path d="M99.22,125.014 L99.22,124.454 C99.22,123.743 98.715,123.266 97.959,123.266 C97.41,123.266 96.996,123.366 96.591,123.537 L96.556,123.42 C97.068,123.061 97.779,122.816 98.463,122.816 C99.489,122.816 100.21,123.42 100.21,124.32 L100.21,126.868 C100.21,127.264 100.472,127.525 100.867,127.525 C101.867,127.525 102.533,126.499 102.533,124.968 C102.533,122.644 100.832,121.097 98.284,121.097 C95.735,121.097 94.034,122.826 94.034,125.408 C94.034,127.993 95.735,129.72 98.284,129.72 C99.463,129.72 100.949,129.406 101.993,128.937 L102.055,129.083 C101.047,129.632 99.534,130.001 98.284,130.001 C95.502,130.001 93.647,128.164 93.647,125.408 C93.647,122.654 95.501,120.818 98.284,120.818 C101.065,120.818 102.92,122.474 102.92,124.968 C102.92,126.739 101.931,127.929 100.462,127.929 C99.795,127.929 99.337,127.658 99.237,127.236 C98.751,127.677 98.184,127.912 97.563,127.912 C96.725,127.912 96.149,127.498 96.149,126.787 C96.149,125.751 97.374,125.059 99.22,125.014 Z M98.022,127.471 C98.454,127.471 98.85,127.309 99.219,127.002 L99.219,125.176 C97.932,125.237 97.184,125.76 97.184,126.598 C97.185,127.182 97.5,127.471 98.022,127.471 Z" id="Shape_22_" fill="#92C5EB"></path>
            <path d="M108.725,128.523 C108.725,129.416 107.663,130.001 106.069,130.001 C104.385,130.001 103.547,129.623 103.547,129.047 C103.547,128.613 103.872,128.274 104.421,127.993 C104.196,127.857 104.069,127.65 104.069,127.381 C104.069,126.949 104.339,126.57 104.69,126.256 C104.178,125.959 103.872,125.464 103.872,124.844 C103.872,123.807 104.718,123.114 105.997,123.114 C106.491,123.114 106.924,123.221 107.267,123.421 L108.32,122.8 L108.411,122.8 L108.546,123.529 L108.546,123.62 L107.538,123.62 C107.898,123.926 108.105,124.349 108.105,124.846 C108.105,125.88 107.258,126.575 105.999,126.575 C105.576,126.575 105.207,126.503 104.893,126.358 C104.694,126.539 104.559,126.762 104.559,126.952 C104.559,127.205 104.739,127.331 105.073,127.331 L107.305,127.331 C108.156,127.327 108.725,127.805 108.725,128.523 Z M108.031,128.812 C108.031,128.388 107.752,128.154 107.248,128.154 L105.051,128.154 C104.88,128.154 104.727,128.128 104.602,128.083 C104.358,128.326 104.295,128.542 104.295,128.812 C104.295,129.441 104.899,129.775 106.068,129.775 C107.355,129.775 108.031,129.441 108.031,128.812 Z M104.916,124.842 C104.916,125.868 105.285,126.336 105.997,126.336 C106.699,126.336 107.059,125.868 107.059,124.842 C107.059,123.817 106.7,123.338 105.997,123.338 C105.285,123.338 104.916,123.816 104.916,124.842 Z" id="Shape_23_" fill="#92C5EB"></path>
            <path d="M118.077,128.02 L118.077,128.11 L115.673,128.11 L115.673,128.02 L116.339,127.768 L116.339,124.744 C116.339,124.032 115.889,123.565 115.195,123.565 C114.7,123.565 114.322,123.762 113.998,124.094 C114.053,124.247 114.079,124.428 114.079,124.608 L114.079,127.768 L114.816,128.02 L114.816,128.11 L112.421,128.11 L112.421,128.02 L113.087,127.768 L113.087,124.744 C113.087,124.032 112.638,123.565 111.953,123.565 C111.494,123.565 111.134,123.735 110.828,124.024 L110.828,127.768 L111.565,128.02 L111.565,128.11 L109.153,128.11 L109.153,128.02 L109.837,127.768 L109.837,123.78 L109.171,123.493 L109.171,123.403 L110.674,123.114 L110.765,123.114 L110.8,123.799 C111.295,123.349 111.898,123.114 112.502,123.114 C113.159,123.114 113.681,123.421 113.924,123.916 C114.437,123.394 115.103,123.114 115.752,123.114 C116.679,123.114 117.327,123.709 117.327,124.608 L117.327,127.768 L118.077,128.02 Z" id="Shape_24_" fill="#92C5EB"></path>
            <path d="M123.232,127.822 L123.232,127.912 L121.747,128.199 L121.656,128.199 L121.521,127.525 C121.036,127.974 120.459,128.199 119.847,128.199 C119.001,128.199 118.425,127.786 118.425,127.074 C118.425,126.049 119.65,125.345 121.495,125.303 L121.495,124.743 C121.495,124.031 121,123.564 120.233,123.564 C119.694,123.564 119.27,123.654 118.866,123.824 L118.83,123.708 C119.343,123.355 120.056,123.113 120.739,123.113 C121.764,123.113 122.485,123.708 122.485,124.607 L122.485,127.55 L123.232,127.822 Z M120.307,127.758 C120.729,127.758 121.125,127.606 121.495,127.29 L121.495,125.473 C120.217,125.534 119.46,126.048 119.46,126.895 C119.46,127.471 119.775,127.758 120.307,127.758 Z" id="Shape_25_" fill="#92C5EB"></path>
            <path d="M126.012,128.02 L126.012,128.11 L123.662,128.11 L123.662,128.02 L124.346,127.768 L124.346,123.78 L123.68,123.493 L123.68,123.403 L125.246,123.114 L125.336,123.114 L125.336,127.768 L126.012,128.02 Z M124.248,121.691 C124.248,121.367 124.482,121.15 124.842,121.15 C125.194,121.15 125.428,121.367 125.428,121.691 C125.428,122.015 125.194,122.24 124.842,122.24 C124.482,122.24 124.248,122.016 124.248,121.691 Z" id="Shape_26_" fill="#92C5EB"></path>
            <polygon id="Shape_27_" fill="#92C5EB" points="128.848 128.02 128.848 128.109 126.497 128.109 126.497 128.02 127.172 127.768 127.172 121.538 126.516 121.286 126.516 121.195 128.072 120.818 128.162 120.818 128.162 127.768"></polygon>
            <path d="M130.25,128.199 C129.863,128.199 129.602,127.947 129.602,127.57 C129.602,127.201 129.864,126.958 130.25,126.958 C130.646,126.958 130.898,127.201 130.898,127.57 C130.898,127.947 130.646,128.199 130.25,128.199 Z" id="Shape_28_" fill="#92C5EB"></path>
            <path d="M131.717,125.788 C131.717,124.185 132.725,123.113 134.221,123.113 C134.796,123.113 135.354,123.249 135.778,123.472 L135.723,124.3 L135.624,124.282 L134.266,123.337 C133.328,123.337 132.77,124.148 132.77,125.507 C132.77,126.903 133.391,127.695 134.346,127.695 C134.913,127.695 135.507,127.533 135.887,127.291 L135.967,127.391 C135.499,127.823 134.832,128.202 133.905,128.202 C132.607,128.199 131.717,127.236 131.717,125.788 Z" id="Shape_29_" fill="#92C5EB"></path>
            <path d="M136.542,125.652 C136.542,124.131 137.541,123.113 139.036,123.113 C140.529,123.113 141.529,124.131 141.529,125.652 C141.529,127.181 140.529,128.199 139.036,128.199 C137.541,128.199 136.542,127.182 136.542,125.652 Z M140.447,125.652 C140.447,124.131 139.953,123.339 139.035,123.339 C138.117,123.339 137.621,124.131 137.621,125.652 C137.621,127.173 138.115,127.974 139.035,127.974 C139.953,127.975 140.447,127.173 140.447,125.652 Z" id="Shape_30_" fill="#92C5EB"></path>
            <path d="M151.16,128.02 L151.16,128.11 L148.756,128.11 L148.756,128.02 L149.423,127.768 L149.423,124.744 C149.423,124.032 148.973,123.565 148.279,123.565 C147.784,123.565 147.406,123.762 147.082,124.094 C147.137,124.247 147.163,124.428 147.163,124.608 L147.163,127.768 L147.9,128.02 L147.9,128.11 L145.504,128.11 L145.504,128.02 L146.171,127.768 L146.171,124.744 C146.171,124.032 145.722,123.565 145.036,123.565 C144.577,123.565 144.218,123.735 143.911,124.024 L143.911,127.768 L144.649,128.02 L144.649,128.11 L142.235,128.11 L142.235,128.02 L142.92,127.768 L142.92,123.78 L142.254,123.493 L142.254,123.403 L143.757,123.114 L143.847,123.114 L143.884,123.799 C144.378,123.349 144.982,123.114 145.584,123.114 C146.241,123.114 146.765,123.421 147.007,123.916 C147.521,123.394 148.187,123.114 148.834,123.114 C149.763,123.114 150.41,123.709 150.41,124.608 L150.41,127.768 L151.16,128.02 Z" id="Shape_31_" fill="#92C5EB"></path>
            <polygon id="Shape_32_" fill="#92C5EB" points="37.25 140.917 35.559 140.917 35.559 142.628 35.297 142.628 35.297 140.917 33.604 140.917 33.604 140.691 35.297 140.691 35.297 138.973 35.559 138.973 35.559 140.691 37.25 140.691"></polygon>
            <path d="M42.506,141.54 C42.506,142.719 41.48,143.502 39.931,143.502 C39.22,143.502 38.338,143.295 37.861,143.016 L37.933,142.27 L38.032,142.244 L39.832,143.223 C40.858,143.223 41.471,142.71 41.471,141.846 C41.471,140.702 40.283,140.028 38.266,140.028 L38.5,136.751 L41.012,136.751 L41.966,136.445 L42.056,136.445 L42.056,137.533 L38.789,137.533 L38.681,139.154 C40.985,139.199 42.506,140.135 42.506,141.54 Z" id="Shape_33_" fill="#92C5EB"></path>
            <path d="M47.862,141.54 C47.862,142.719 46.836,143.502 45.287,143.502 C44.576,143.502 43.693,143.295 43.215,143.016 L43.287,142.27 L43.386,142.244 L45.186,143.223 C46.212,143.223 46.825,142.71 46.825,141.846 C46.825,140.702 45.637,140.028 43.619,140.028 L43.853,136.752 L46.366,136.752 L47.32,136.446 L47.41,136.446 L47.41,137.534 L44.141,137.534 L44.033,139.155 C46.341,139.199 47.862,140.135 47.862,141.54 Z" id="Shape_34_" fill="#92C5EB"></path>
            <polygon id="Shape_35_" fill="#92C5EB" points="54.45 143.322 54.45 143.412 50.849 143.412 50.849 143.322 52.119 143.07 52.119 137.658 50.805 137.658 50.805 137.568 53.083 136.66 53.173 136.66 53.173 143.07"></polygon>
            <polygon id="Shape_36_" fill="#92C5EB" points="58.383 143.322 58.383 143.412 54.782 143.412 54.782 143.322 56.052 143.07 56.052 137.658 54.738 137.658 54.738 137.568 57.016 136.66 57.106 136.66 57.106 143.07"></polygon>
            <path d="M65.97,139.09 C65.97,141.315 64.574,142.799 61.937,143.592 L61.856,143.492 C63.503,142.554 64.377,141.646 64.683,140.17 C64.197,140.574 63.639,140.811 62.982,140.811 C61.794,140.811 60.992,140.053 60.992,138.912 C60.992,137.561 61.982,136.661 63.468,136.661 C64.971,136.66 65.97,137.632 65.97,139.09 Z M64.728,139.918 C64.782,139.559 64.809,139.18 64.809,138.757 C64.809,137.561 64.341,136.94 63.468,136.94 C62.604,136.94 62.145,137.534 62.145,138.669 C62.145,139.784 62.604,140.379 63.468,140.379 C63.972,140.377 64.341,140.225 64.728,139.918 Z" id="Shape_37_" fill="#92C5EB"></path>
            <path d="M70.497,141.287 L70.497,143.07 L71.325,143.322 L71.325,143.412 L68.427,143.412 L68.427,143.322 L69.444,143.07 L69.444,141.287 L66.589,141.287 L66.499,141.08 L69.713,136.75 L70.496,136.75 L70.496,140.908 L71.63,140.908 L71.63,141.287 L70.497,141.287 Z M67.04,140.908 L69.453,140.908 L69.453,137.64 L67.04,140.908 Z" id="Shape_38_" fill="#92C5EB"></path>
            <path d="M75.978,141.287 L75.978,143.07 L76.806,143.322 L76.806,143.412 L73.908,143.412 L73.908,143.322 L74.925,143.07 L74.925,141.287 L72.071,141.287 L71.981,141.08 L75.195,136.75 L75.978,136.75 L75.978,140.908 L77.112,140.908 L77.112,141.287 L75.978,141.287 Z M72.52,140.908 L74.933,140.908 L74.933,137.64 L72.52,140.908 Z" id="Shape_39_" fill="#92C5EB"></path>
            <path d="M82.809,141.18 C82.809,142.575 81.809,143.501 80.324,143.501 C78.829,143.501 77.83,142.502 77.83,140.998 C77.83,138.81 79.189,137.324 81.863,136.568 L81.944,136.668 C80.269,137.577 79.405,138.469 79.108,139.945 C79.585,139.476 80.152,139.216 80.818,139.216 C82.008,139.217 82.809,140 82.809,141.18 Z M81.657,141.432 C81.657,140.26 81.189,139.649 80.324,139.649 C79.82,139.649 79.451,139.83 79.064,140.198 C79.01,140.541 78.983,140.928 78.983,141.343 C78.983,142.575 79.46,143.224 80.324,143.224 C81.188,143.223 81.657,142.602 81.657,141.432 Z" id="Shape_40_" fill="#92C5EB"></path>
            <path d="M88.534,141.18 C88.534,142.575 87.534,143.501 86.049,143.501 C84.554,143.501 83.555,142.502 83.555,140.998 C83.555,138.81 84.914,137.324 87.588,136.568 L87.669,136.668 C85.994,137.577 85.13,138.469 84.833,139.945 C85.31,139.476 85.877,139.216 86.543,139.216 C87.731,139.217 88.534,140 88.534,141.18 Z M87.38,141.432 C87.38,140.26 86.912,139.649 86.047,139.649 C85.543,139.649 85.174,139.83 84.787,140.198 C84.733,140.541 84.706,140.928 84.706,141.343 C84.706,142.575 85.183,143.224 86.047,143.224 C86.912,143.223 87.38,142.602 87.38,141.432 Z" id="Shape_41_" fill="#92C5EB"></path>
            <polygon id="Shape_42_" fill="#92C5EB" points="92.205 140.693 92.205 140.918 89.468 140.918 89.468 140.693"></polygon>
            <path d="M97.173,143.322 L97.173,143.412 L92.744,143.412 L92.654,142.818 C94.23,141.125 95.886,139.513 95.886,138.216 C95.886,137.414 95.417,136.946 94.615,136.946 L93.041,137.971 L92.941,138 L92.878,137.09 C93.399,136.813 94.147,136.658 94.713,136.658 C96.109,136.658 97.027,137.252 97.027,138.322 C97.027,139.755 95.091,141.302 93.48,142.599 L93.48,142.625 L96.099,142.625 L97.044,142.229 L97.134,142.229 L97.173,143.322 Z" id="Shape_43_" fill="#92C5EB"></path>
            <path d="M98.106,140.081 C98.106,138.027 99.133,136.66 100.672,136.66 C102.212,136.66 103.236,138.027 103.236,140.081 C103.236,142.125 102.211,143.502 100.672,143.502 C99.133,143.502 98.106,142.125 98.106,140.081 Z M102.086,140.081 C102.086,138.027 101.591,136.947 100.673,136.947 C99.755,136.947 99.259,138.027 99.259,140.081 C99.259,142.135 99.754,143.223 100.673,143.223 C101.591,143.223 102.086,142.133 102.086,140.081 Z" id="Shape_44_" fill="#92C5EB"></path>
            <polygon id="Shape_45_" fill="#92C5EB" points="107.541 143.322 107.541 143.412 103.939 143.412 103.939 143.322 105.21 143.07 105.21 137.658 103.896 137.658 103.896 137.568 106.174 136.66 106.264 136.66 106.264 143.07"></polygon>
            <path d="M112.852,141.18 C112.852,142.575 111.852,143.501 110.368,143.501 C108.873,143.501 107.874,142.502 107.874,140.998 C107.874,138.81 109.233,137.324 111.907,136.568 L111.987,136.668 C110.313,137.577 109.448,138.469 109.151,139.945 C109.629,139.476 110.196,139.216 110.862,139.216 C112.05,139.217 112.852,140 112.852,141.18 Z M111.699,141.432 C111.699,140.26 111.23,139.649 110.365,139.649 C109.861,139.649 109.493,139.83 109.105,140.198 C109.052,140.541 109.025,140.928 109.025,141.343 C109.025,142.575 109.502,143.224 110.365,143.224 C111.23,143.223 111.699,142.602 111.699,141.432 Z" id="Shape_46_" fill="#92C5EB"></path>
            <g id="Rectangle-path" fill="#FFFFFF">
                <path d="M284.648,1 L284.648,194.014 L1.998,194.014 L1.998,1 L284.648,1 Z M285.648,0 L0.998,0 L0.998,195.014 L285.648,195.014 L285.648,0 Z" id="Shape"></path>
            </g>
        </g>
    </g>
</svg>