<?xml version="1.0" encoding="UTF-8"?>
<svg width="285px" height="196px" viewBox="0 0 285 196" version="1.1" xmlns="http://www.w3.org/2000/svg" xmlns:xlink="http://www.w3.org/1999/xlink">
    <!-- Generator: Sketch 52.1 (67048) - http://www.bohemiancoding.com/sketch -->
    <title>tipografia_cartao</title>
    <desc>Created with Sketch.</desc>
    <g id="Page-1" stroke="none" stroke-width="1" fill="none" fill-rule="evenodd">
        <g id="tipografia_cartao" transform="translate(-1.000000, 0.000000)" fill-rule="nonzero">
            <g id="Page-1" fill="#FFFFFF">
                <g id="tipografia_cartao">
                    <g id="Rectangle-path">
                        <path d="M284.648,1 L284.648,194.014 L1.998,194.014 L1.998,1 L284.648,1 Z M285.648,0 L0.998,0 L0.998,195.014 L285.648,195.014 L285.648,0 Z" id="Shape_47_"></path>
                    </g>
                </g>
            </g>
            <g id="Group" transform="translate(33.000000, 83.000000)">
                <path d="M77.355,71.227 C76.49,71.227 76.013,70.58 76.013,69.345 C76.013,68.931 76.04,68.544 76.094,68.202 C76.481,67.833 76.85,67.652 77.355,67.652 C78.219,67.652 78.687,68.264 78.687,69.434 C78.687,70.605 78.219,71.227 77.355,71.227 Z M77.85,67.222 C77.184,67.222 76.616,67.482 76.139,67.951 C76.436,66.475 77.301,65.585 78.975,64.676 L78.894,64.577 C76.22,65.333 74.862,66.817 74.862,69.004 C74.862,70.508 75.86,71.506 77.355,71.506 C78.84,71.506 79.838,70.58 79.838,69.184 C79.838,68.004 79.038,67.222 77.85,67.222 Z M73.259,71.074 L73.259,64.666 L73.169,64.666 L70.893,65.575 L70.893,65.664 L72.207,65.664 L72.207,71.074 L70.938,71.326 L70.938,71.415 L74.537,71.415 L74.537,71.326 L73.259,71.074 Z M67.671,71.227 C66.752,71.227 66.257,70.138 66.257,68.085 C66.257,66.033 66.752,64.953 67.671,64.953 C68.589,64.953 69.084,66.033 69.084,68.085 C69.084,70.138 68.589,71.227 67.671,71.227 Z M67.671,71.505 C69.21,71.505 70.235,70.129 70.235,68.085 C70.235,66.033 69.21,64.666 67.671,64.666 C66.131,64.666 65.106,66.033 65.106,68.085 C65.106,70.129 66.131,71.505 67.671,71.505 Z M64.133,70.237 L64.043,70.237 L63.099,70.633 L60.48,70.633 L60.48,70.606 C62.091,69.31 64.025,67.761 64.025,66.331 C64.025,65.26 63.108,64.667 61.713,64.667 C61.146,64.667 60.399,64.818 59.877,65.098 L59.94,66.007 L60.039,65.98 L61.614,64.955 C62.415,64.955 62.883,65.423 62.883,66.224 C62.883,67.52 61.227,69.132 59.652,70.825 L59.742,71.418 L64.169,71.418 L64.169,71.328 L64.133,70.237 Z M56.466,68.922 L59.201,68.922 L59.201,68.698 L56.466,68.698 L56.466,68.922 Z M53.046,71.227 C52.181,71.227 51.704,70.58 51.704,69.345 C51.704,68.931 51.731,68.544 51.785,68.202 C52.172,67.833 52.542,67.652 53.046,67.652 C53.91,67.652 54.378,68.264 54.378,69.434 C54.378,70.605 53.91,71.227 53.046,71.227 Z M53.541,67.222 C52.875,67.222 52.307,67.482 51.83,67.951 C52.127,66.475 52.992,65.585 54.666,64.676 L54.585,64.577 C51.911,65.333 50.553,66.817 50.553,69.004 C50.553,70.508 51.551,71.506 53.046,71.506 C54.531,71.506 55.529,70.58 55.529,69.184 C55.529,68.004 54.729,67.222 53.541,67.222 Z M47.322,71.227 C46.458,71.227 45.98,70.58 45.98,69.345 C45.98,68.931 46.007,68.544 46.061,68.202 C46.449,67.833 46.818,67.652 47.322,67.652 C48.186,67.652 48.654,68.264 48.654,69.434 C48.654,70.605 48.186,71.227 47.322,71.227 Z M47.817,67.222 C47.151,67.222 46.584,67.482 46.106,67.951 C46.404,66.475 47.268,65.585 48.942,64.676 L48.861,64.577 C46.187,65.333 44.829,66.817 44.829,69.004 C44.829,70.508 45.828,71.506 47.322,71.506 C48.807,71.506 49.805,70.58 49.805,69.184 C49.805,68.004 49.005,67.222 47.817,67.222 Z M41.932,65.646 L41.932,68.914 L39.52,68.914 L41.932,65.646 Z M44.108,69.291 L44.108,68.914 L42.974,68.914 L42.974,64.756 L42.192,64.756 L38.98,69.084 L39.07,69.291 L41.923,69.291 L41.923,71.074 L40.906,71.326 L40.906,71.415 L43.802,71.415 L43.802,71.326 L42.974,71.074 L42.974,69.291 L44.108,69.291 Z M36.442,65.646 L36.442,68.914 L34.03,68.914 L36.442,65.646 Z M38.619,69.291 L38.619,68.914 L37.485,68.914 L37.485,64.756 L36.702,64.756 L33.49,69.084 L33.58,69.291 L36.433,69.291 L36.433,71.074 L35.416,71.326 L35.416,71.415 L38.313,71.415 L38.313,71.326 L37.485,71.074 L37.485,69.291 L38.619,69.291 Z M30.456,68.383 C29.592,68.383 29.133,67.789 29.133,66.672 C29.133,65.538 29.592,64.943 30.456,64.943 C31.33,64.943 31.798,65.564 31.798,66.761 C31.798,67.185 31.771,67.563 31.717,67.923 C31.33,68.229 30.96,68.383 30.456,68.383 Z M30.456,64.666 C28.971,64.666 27.982,65.564 27.982,66.916 C27.982,68.059 28.782,68.813 29.97,68.813 C30.627,68.813 31.185,68.58 31.672,68.175 C31.366,69.65 30.492,70.559 28.845,71.495 L28.926,71.594 C31.564,70.802 32.958,69.317 32.958,67.095 C32.958,65.637 31.96,64.666 30.456,64.666 Z M24.093,71.074 L24.093,64.666 L24.003,64.666 L21.727,65.575 L21.727,65.664 L23.041,65.664 L23.041,71.074 L21.772,71.326 L21.772,71.415 L25.371,71.415 L25.371,71.326 L24.093,71.074 Z M20.16,71.074 L20.16,64.666 L20.07,64.666 L17.794,65.575 L17.794,65.664 L19.108,65.664 L19.108,71.074 L17.839,71.326 L17.839,71.415 L21.438,71.415 L21.438,71.326 L20.16,71.074 Z M11.026,67.159 L11.134,65.538 L14.4,65.538 L14.4,64.45 L14.31,64.45 L13.357,64.756 L10.846,64.756 L10.612,68.031 C12.628,68.031 13.816,68.706 13.816,69.849 C13.816,70.713 13.204,71.226 12.178,71.226 L10.378,70.246 L10.279,70.272 L10.207,71.019 C10.684,71.298 11.566,71.504 12.277,71.504 C13.825,71.504 14.85,70.722 14.85,69.542 C14.85,68.139 13.33,67.204 11.026,67.159 Z M5.671,67.159 L5.779,65.538 L9.045,65.538 L9.045,64.45 L8.956,64.45 L8.002,64.756 L5.491,64.756 L5.257,68.031 C7.273,68.031 8.461,68.706 8.461,69.849 C8.461,70.713 7.849,71.226 6.823,71.226 L5.023,70.246 L4.924,70.272 L4.852,71.019 C5.329,71.298 6.211,71.504 6.922,71.504 C8.47,71.504 9.495,70.722 9.495,69.542 C9.495,68.139 7.975,67.204 5.671,67.159 Z M4.248,68.698 L2.556,68.698 L2.556,66.978 L2.296,66.978 L2.296,68.698 L0.604,68.698 L0.604,68.922 L2.296,68.922 L2.296,70.632 L2.556,70.632 L2.556,68.922 L4.248,68.922 L4.248,68.698 Z" id="Shape" fill="#91C5EA"></path>
                <path d="M81.686,55.772 L81.686,52.612 C81.686,51.713 81.039,51.119 80.112,51.119 C79.464,51.119 78.798,51.397 78.285,51.919 C78.042,51.425 77.52,51.119 76.863,51.119 C76.26,51.119 75.657,51.352 75.161,51.803 L75.125,51.119 L75.036,51.119 L73.534,51.406 L73.534,51.496 L74.2,51.784 L74.2,55.772 L73.516,56.024 L73.516,56.113 L75.927,56.113 L75.927,56.024 L75.188,55.772 L75.188,52.027 C75.495,51.739 75.855,51.568 76.314,51.568 C76.998,51.568 77.449,52.036 77.449,52.747 L77.449,55.772 L76.782,56.024 L76.782,56.113 L79.176,56.113 L79.176,56.024 L78.437,55.772 L78.437,52.612 C78.437,52.432 78.41,52.252 78.357,52.099 C78.681,51.766 79.059,51.568 79.554,51.568 C80.247,51.568 80.698,52.036 80.698,52.747 L80.698,55.772 L80.031,56.024 L80.031,56.113 L82.433,56.113 L82.433,56.024 L81.686,55.772 Z M70.311,55.979 C69.393,55.979 68.897,55.178 68.897,53.656 C68.897,52.135 69.393,51.344 70.311,51.344 C71.229,51.344 71.725,52.136 71.725,53.656 C71.725,55.179 71.229,55.979 70.311,55.979 Z M70.311,56.203 C71.806,56.203 72.803,55.187 72.803,53.656 C72.803,52.135 71.806,51.119 70.311,51.119 C68.817,51.119 67.819,52.136 67.819,53.656 C67.818,55.188 68.816,56.203 70.311,56.203 Z M65.18,56.203 C66.107,56.203 66.773,55.826 67.241,55.394 L67.16,55.295 C66.782,55.537 66.188,55.699 65.621,55.699 C64.667,55.699 64.046,54.907 64.046,53.511 C64.046,52.152 64.604,51.342 65.54,51.342 L66.899,52.286 L66.998,52.305 L67.052,51.477 C66.629,51.252 66.071,51.118 65.495,51.118 C64.001,51.118 62.995,52.188 62.995,53.791 C62.995,55.241 63.884,56.203 65.18,56.203 Z M61.526,56.203 C61.139,56.203 60.879,55.951 60.879,55.573 C60.879,55.205 61.139,54.963 61.526,54.963 C61.922,54.963 62.173,55.205 62.173,55.573 C62.173,55.951 61.922,56.203 61.526,56.203 Z M56.451,54.899 C56.451,54.052 57.207,53.539 58.486,53.476 L58.486,55.295 C58.116,55.609 57.72,55.763 57.297,55.763 C56.766,55.764 56.451,55.476 56.451,54.899 Z M59.475,55.557 L59.475,52.614 C59.475,51.714 58.755,51.12 57.729,51.12 C57.045,51.12 56.334,51.362 55.821,51.714 L55.857,51.83 C56.262,51.659 56.685,51.569 57.225,51.569 C57.99,51.569 58.486,52.037 58.486,52.749 L58.486,53.308 C56.64,53.353 55.417,54.054 55.417,55.08 C55.417,55.791 55.992,56.204 56.838,56.204 C57.45,56.204 58.026,55.979 58.513,55.53 L58.647,56.204 L58.737,56.204 L60.222,55.917 L60.222,55.827 L59.475,55.557 Z M54.471,51.119 C53.841,51.119 53.265,51.433 52.806,52.018 L52.77,51.119 L52.68,51.119 L51.178,51.407 L51.178,51.496 L51.844,51.758 L51.844,55.773 L51.16,56.025 L51.16,56.114 L53.67,56.114 L53.67,56.025 L52.833,55.773 L52.833,52.235 C53.121,51.92 53.463,51.776 53.895,51.776 C54.381,51.776 54.768,51.938 55.011,52.19 L55.101,52.217 L55.227,51.318 C55.02,51.183 54.758,51.119 54.471,51.119 Z M49.953,55.772 L49.953,51.119 L49.863,51.119 L48.298,51.407 L48.298,51.497 L48.964,51.785 L48.964,55.772 L48.28,56.024 L48.28,56.113 L50.628,56.113 L50.628,56.024 L49.953,55.772 Z M49.458,50.245 C49.809,50.245 50.043,50.02 50.043,49.696 C50.043,49.373 49.809,49.157 49.458,49.157 C49.099,49.157 48.865,49.373 48.865,49.696 C48.865,50.021 49.099,50.245 49.458,50.245 Z M45.425,51.344 C46.2,51.344 46.623,52.036 46.623,53.226 L44.219,53.298 C44.273,52.01 44.688,51.344 45.425,51.344 Z M45.804,55.7 C44.832,55.7 44.211,54.944 44.211,53.594 L44.211,53.458 L47.622,53.458 C47.622,52.055 46.759,51.119 45.462,51.119 C44.076,51.119 43.15,52.189 43.15,53.791 C43.15,55.241 44.04,56.203 45.336,56.203 C46.3,56.203 47.001,55.826 47.487,55.394 L47.415,55.295 C47.019,55.538 46.39,55.7 45.804,55.7 Z M42.446,55.25 L42.356,55.25 L40.943,55.89 L39.513,55.89 L42.401,51.299 L42.374,51.209 L38.424,51.209 L38.424,51.3 L38.487,52.019 L38.586,52.019 L39.98,51.434 L41.159,51.434 L38.271,56.024 L38.298,56.114 L42.509,56.114 L42.509,56.024 L42.446,55.25 Z M37.074,55.557 L37.074,51.119 L36.984,51.119 L35.428,51.407 L35.428,51.497 L36.085,51.785 L36.085,55.305 C35.779,55.593 35.419,55.755 34.959,55.755 C34.284,55.755 33.834,55.277 33.834,54.567 L33.834,51.12 L33.744,51.12 L32.179,51.408 L32.179,51.498 L32.845,51.786 L32.845,54.711 C32.845,55.611 33.483,56.204 34.41,56.204 C35.004,56.204 35.608,55.971 36.103,55.53 L36.247,56.204 L36.337,56.204 L37.821,55.917 L37.821,55.827 L37.074,55.557 Z M31.043,55.772 L31.043,48.824 L30.953,48.824 L29.397,49.202 L29.397,49.292 L30.054,49.544 L30.054,55.773 L29.379,56.025 L29.379,56.114 L31.727,56.114 L31.727,56.025 L31.043,55.772 Z M27.976,56.203 C27.589,56.203 27.328,55.951 27.328,55.573 C27.328,55.205 27.589,54.963 27.976,54.963 C28.371,54.963 28.623,55.205 28.623,55.573 C28.623,55.951 28.371,56.203 27.976,56.203 Z M27.327,51.209 L25.635,51.209 L25.635,51.299 L26.391,51.551 L25.239,54.871 L24.069,51.209 L23.628,51.209 L22.369,54.862 L21.289,51.55 L22.027,51.298 L22.027,51.208 L19.579,51.208 L19.579,51.298 L20.254,51.55 L21.793,56.112 L22.243,56.112 L23.476,52.521 L24.672,56.112 L25.113,56.112 L26.697,51.55 L27.327,51.298 L27.327,51.209 Z M19.568,51.209 L17.876,51.209 L17.876,51.299 L18.632,51.551 L17.48,54.871 L16.31,51.209 L15.87,51.209 L14.611,54.862 L13.531,51.55 L14.269,51.298 L14.269,51.208 L11.82,51.208 L11.82,51.298 L12.495,51.55 L14.034,56.112 L14.484,56.112 L15.717,52.521 L16.913,56.112 L17.354,56.112 L18.938,51.55 L19.568,51.298 L19.568,51.209 Z M11.811,51.209 L10.119,51.209 L10.119,51.299 L10.875,51.551 L9.723,54.871 L8.553,51.209 L8.112,51.209 L6.853,54.862 L5.773,51.55 L6.511,51.298 L6.511,51.208 L4.063,51.208 L4.063,51.298 L4.738,51.55 L6.277,56.112 L6.727,56.112 L7.96,52.521 L9.156,56.112 L9.597,56.112 L11.181,51.55 L11.811,51.298 L11.811,51.209 Z" id="Shape" fill="#91C5EA"></path>
                <path d="M105.455,40.471 L105.455,37.311 C105.455,36.412 104.808,35.819 103.881,35.819 C103.232,35.819 102.566,36.096 102.053,36.619 C101.81,36.124 101.289,35.819 100.632,35.819 C100.028,35.819 99.425,36.051 98.93,36.502 L98.894,35.819 L98.804,35.819 L97.302,36.105 L97.302,36.196 L97.968,36.484 L97.968,40.471 L97.284,40.723 L97.284,40.812 L99.695,40.812 L99.695,40.723 L98.957,40.471 L98.957,36.726 C99.263,36.438 99.623,36.267 100.082,36.267 C100.767,36.267 101.217,36.736 101.217,37.447 L101.217,40.471 L100.551,40.723 L100.551,40.812 L102.944,40.812 L102.944,40.723 L102.206,40.471 L102.206,37.311 C102.206,37.131 102.179,36.952 102.125,36.798 C102.449,36.465 102.827,36.267 103.322,36.267 C104.016,36.267 104.466,36.736 104.466,37.447 L104.466,40.471 L103.8,40.723 L103.8,40.812 L106.202,40.812 L106.202,40.723 L105.455,40.471 Z M94.08,40.678 C93.161,40.678 92.666,39.877 92.666,38.356 C92.666,36.835 93.161,36.043 94.08,36.043 C94.998,36.043 95.493,36.835 95.493,38.356 C95.493,39.877 94.998,40.678 94.08,40.678 Z M94.08,40.902 C95.574,40.902 96.572,39.885 96.572,38.355 C96.572,36.834 95.574,35.818 94.08,35.818 C92.585,35.818 91.587,36.834 91.587,38.355 C91.587,39.886 92.585,40.902 94.08,40.902 Z M88.949,40.902 C89.876,40.902 90.542,40.525 91.01,40.092 L90.929,39.993 C90.551,40.236 89.957,40.398 89.39,40.398 C88.436,40.398 87.815,39.605 87.815,38.21 C87.815,36.851 88.373,36.041 89.309,36.041 L90.668,36.986 L90.767,37.004 L90.821,36.176 C90.398,35.951 89.84,35.818 89.264,35.818 C87.77,35.818 86.763,36.887 86.763,38.491 C86.763,39.939 87.653,40.902 88.949,40.902 Z M85.295,40.902 C84.909,40.902 84.648,40.65 84.648,40.272 C84.648,39.904 84.909,39.661 85.295,39.661 C85.691,39.661 85.943,39.904 85.943,40.272 C85.943,40.65 85.691,40.902 85.295,40.902 Z M80.219,39.598 C80.219,38.751 80.975,38.239 82.254,38.175 L82.254,39.994 C81.885,40.308 81.489,40.462 81.065,40.462 C80.534,40.462 80.219,40.174 80.219,39.598 Z M83.243,40.255 L83.243,37.312 C83.243,36.412 82.524,35.819 81.498,35.819 C80.813,35.819 80.102,36.06 79.59,36.412 L79.626,36.529 C80.03,36.357 80.453,36.267 80.993,36.267 C81.759,36.267 82.254,36.736 82.254,37.448 L82.254,38.006 C80.408,38.051 79.185,38.752 79.185,39.779 C79.185,40.49 79.76,40.903 80.606,40.903 C81.219,40.903 81.795,40.678 82.281,40.228 L82.416,40.903 L82.506,40.903 L83.99,40.616 L83.99,40.526 L83.243,40.255 Z M78.239,35.818 C77.609,35.818 77.033,36.132 76.574,36.716 L76.538,35.818 L76.448,35.818 L74.946,36.105 L74.946,36.195 L75.612,36.456 L75.612,40.471 L74.928,40.723 L74.928,40.812 L77.438,40.812 L77.438,40.723 L76.601,40.471 L76.601,36.933 C76.889,36.619 77.231,36.474 77.663,36.474 C78.149,36.474 78.536,36.636 78.779,36.888 L78.869,36.915 L78.995,36.016 C78.788,35.881 78.527,35.818 78.239,35.818 Z M73.721,40.471 L73.721,35.819 L73.631,35.819 L72.066,36.106 L72.066,36.197 L72.732,36.485 L72.732,40.471 L72.048,40.723 L72.048,40.812 L74.396,40.812 L74.396,40.723 L73.721,40.471 Z M73.227,34.944 C73.577,34.944 73.811,34.718 73.811,34.395 C73.811,34.072 73.577,33.855 73.227,33.855 C72.867,33.855 72.633,34.072 72.633,34.395 C72.633,34.718 72.867,34.944 73.227,34.944 Z M69.195,36.042 C69.969,36.042 70.392,36.735 70.392,37.924 L67.988,37.996 C68.042,36.708 68.456,36.042 69.195,36.042 Z M69.573,40.399 C68.6,40.399 67.979,39.642 67.979,38.292 L67.979,38.157 L71.39,38.157 C71.39,36.753 70.527,35.818 69.231,35.818 C67.844,35.818 66.918,36.887 66.918,38.49 C66.918,39.939 67.808,40.902 69.105,40.902 C70.068,40.902 70.77,40.525 71.255,40.092 L71.183,39.993 C70.788,40.237 70.158,40.399 69.573,40.399 Z M66.215,39.949 L66.125,39.949 L64.713,40.588 L63.282,40.588 L66.17,35.997 L66.143,35.908 L62.193,35.908 L62.193,35.998 L62.256,36.717 L62.355,36.717 L63.75,36.132 L64.929,36.132 L62.04,40.722 L62.067,40.812 L66.278,40.812 L66.278,40.722 L66.215,39.949 Z M60.842,40.255 L60.842,35.818 L60.752,35.818 L59.196,36.105 L59.196,36.196 L59.853,36.484 L59.853,40.003 C59.547,40.291 59.187,40.453 58.728,40.453 C58.053,40.453 57.602,39.975 57.602,39.265 L57.602,35.819 L57.512,35.819 L55.947,36.106 L55.947,36.197 L56.613,36.485 L56.613,39.41 C56.613,40.309 57.252,40.903 58.179,40.903 C58.773,40.903 59.376,40.67 59.871,40.228 L60.015,40.903 L60.105,40.903 L61.589,40.616 L61.589,40.526 L60.842,40.255 Z M54.812,40.471 L54.812,33.523 L54.723,33.523 L53.167,33.902 L53.167,33.992 L53.824,34.244 L53.824,40.472 L53.149,40.724 L53.149,40.813 L55.496,40.813 L55.496,40.724 L54.812,40.471 Z M46.703,39.301 C46.703,38.463 47.451,37.942 48.739,37.878 L48.739,39.706 C48.369,40.012 47.973,40.174 47.541,40.174 C47.019,40.174 46.703,39.886 46.703,39.301 Z M45.67,39.49 C45.67,40.201 46.245,40.614 47.082,40.614 C47.703,40.614 48.27,40.381 48.757,39.939 C48.855,40.363 49.314,40.631 49.98,40.631 C51.447,40.631 52.436,39.444 52.436,37.671 C52.436,35.178 50.583,33.522 47.802,33.522 C45.021,33.522 43.168,35.359 43.168,38.112 C43.168,40.866 45.021,42.702 47.802,42.702 C49.053,42.702 50.565,42.334 51.573,41.785 L51.51,41.64 C50.466,42.109 48.981,42.423 47.802,42.423 C45.255,42.423 43.553,40.694 43.553,38.111 C43.553,35.529 45.255,33.799 47.802,33.799 C50.349,33.799 52.051,35.348 52.051,37.67 C52.051,39.2 51.384,40.226 50.385,40.226 C49.989,40.226 49.727,39.965 49.727,39.57 L49.727,37.023 C49.727,36.122 49.008,35.519 47.982,35.519 C47.298,35.519 46.587,35.761 46.074,36.122 L46.11,36.239 C46.515,36.068 46.929,35.968 47.478,35.968 C48.234,35.968 48.739,36.446 48.739,37.157 L48.739,37.715 C46.893,37.762 45.67,38.454 45.67,39.49 Z M38.811,39.598 C38.811,38.751 39.567,38.239 40.846,38.175 L40.846,39.994 C40.476,40.308 40.08,40.462 39.657,40.462 C39.126,40.462 38.811,40.174 38.811,39.598 Z M41.835,40.255 L41.835,37.312 C41.835,36.412 41.115,35.819 40.089,35.819 C39.405,35.819 38.694,36.06 38.181,36.412 L38.217,36.529 C38.622,36.357 39.045,36.267 39.585,36.267 C40.35,36.267 40.846,36.736 40.846,37.448 L40.846,38.006 C39,38.051 37.777,38.752 37.777,39.779 C37.777,40.49 38.352,40.903 39.198,40.903 C39.81,40.903 40.386,40.678 40.873,40.228 L41.007,40.903 L41.097,40.903 L42.582,40.616 L42.582,40.526 L41.835,40.255 Z M36.678,40.471 L36.678,37.311 C36.678,36.412 36.021,35.819 35.067,35.819 C34.446,35.819 33.816,36.06 33.312,36.51 L33.276,35.819 L33.186,35.819 L31.684,36.105 L31.684,36.196 L32.35,36.484 L32.35,40.471 L31.666,40.723 L31.666,40.812 L34.086,40.812 L34.086,40.723 L33.339,40.471 L33.339,36.736 C33.654,36.438 34.032,36.267 34.509,36.267 C35.22,36.267 35.689,36.736 35.689,37.447 L35.689,40.471 L35.013,40.723 L35.013,40.812 L37.425,40.812 L37.425,40.723 L36.678,40.471 Z M27.462,39.598 C27.462,38.751 28.218,38.239 29.497,38.175 L29.497,39.994 C29.128,40.308 28.731,40.462 28.308,40.462 C27.777,40.462 27.462,40.174 27.462,39.598 Z M30.486,40.255 L30.486,37.312 C30.486,36.412 29.766,35.819 28.74,35.819 C28.056,35.819 27.345,36.06 26.832,36.412 L26.868,36.529 C27.273,36.357 27.696,36.267 28.236,36.267 C29.002,36.267 29.497,36.736 29.497,37.448 L29.497,38.006 C27.651,38.051 26.428,38.752 26.428,39.779 C26.428,40.49 27.003,40.903 27.849,40.903 C28.461,40.903 29.038,40.678 29.524,40.228 L29.659,40.903 L29.749,40.903 L31.233,40.616 L31.233,40.526 L30.486,40.255 Z M25.293,40.471 L25.293,35.819 L25.203,35.819 L23.638,36.106 L23.638,36.197 L24.304,36.485 L24.304,40.471 L23.62,40.723 L23.62,40.812 L25.968,40.812 L25.968,40.723 L25.293,40.471 Z M24.798,34.944 C25.149,34.944 25.383,34.718 25.383,34.395 C25.383,34.072 25.149,33.855 24.798,33.855 C24.439,33.855 24.205,34.072 24.205,34.395 C24.205,34.718 24.439,34.944 24.798,34.944 Z M22.467,35.818 C21.837,35.818 21.261,36.132 20.802,36.716 L20.766,35.818 L20.676,35.818 L19.174,36.105 L19.174,36.195 L19.84,36.456 L19.84,40.471 L19.156,40.723 L19.156,40.812 L21.666,40.812 L21.666,40.723 L20.829,40.471 L20.829,36.933 C21.117,36.619 21.459,36.474 21.891,36.474 C22.377,36.474 22.764,36.636 23.007,36.888 L23.097,36.915 L23.223,36.016 C23.016,35.881 22.755,35.818 22.467,35.818 Z M14.952,39.598 C14.952,38.751 15.708,38.239 16.987,38.175 L16.987,39.994 C16.618,40.308 16.222,40.462 15.798,40.462 C15.267,40.462 14.952,40.174 14.952,39.598 Z M17.976,40.255 L17.976,37.312 C17.976,36.412 17.257,35.819 16.231,35.819 C15.546,35.819 14.835,36.06 14.323,36.412 L14.359,36.529 C14.763,36.357 15.186,36.267 15.726,36.267 C16.492,36.267 16.987,36.736 16.987,37.448 L16.987,38.006 C15.141,38.051 13.918,38.752 13.918,39.779 C13.918,40.49 14.493,40.903 15.339,40.903 C15.952,40.903 16.528,40.678 17.014,40.228 L17.149,40.903 L17.239,40.903 L18.723,40.616 L18.723,40.526 L17.976,40.255 Z M12.819,40.471 L12.819,37.311 C12.819,36.412 12.172,35.819 11.245,35.819 C10.597,35.819 9.93,36.096 9.417,36.619 C9.174,36.124 8.653,35.819 7.996,35.819 C7.393,35.819 6.789,36.051 6.294,36.502 L6.258,35.819 L6.168,35.819 L4.666,36.105 L4.666,36.196 L5.332,36.484 L5.332,40.471 L4.648,40.723 L4.648,40.812 L7.059,40.812 L7.059,40.723 L6.321,40.471 L6.321,36.726 C6.627,36.438 6.987,36.267 7.447,36.267 C8.131,36.267 8.581,36.736 8.581,37.447 L8.581,40.471 L7.915,40.723 L7.915,40.812 L10.308,40.812 L10.308,40.723 L9.57,40.471 L9.57,37.311 C9.57,37.131 9.543,36.952 9.489,36.798 C9.813,36.465 10.191,36.267 10.687,36.267 C11.38,36.267 11.83,36.736 11.83,37.447 L11.83,40.471 L11.164,40.723 L11.164,40.812 L13.566,40.812 L13.566,40.723 L12.819,40.471 Z" id="Shape" fill="#91C5EA"></path>
                <path d="M114.252,3.488 C113.576,3.176 112.627,2.996 111.887,2.996 C110.221,2.996 109.144,3.67 109.144,4.905 C109.144,6.933 113.434,7.129 113.434,8.741 C113.434,9.535 112.745,10.015 111.586,10.015 L109.338,8.831 L109.195,8.805 L109.078,9.794 C109.676,10.105 110.715,10.338 111.585,10.338 C113.407,10.338 114.796,9.755 114.796,8.401 C114.796,6.269 110.507,6.1 110.507,4.513 C110.507,3.759 111.026,3.317 111.885,3.317 L114.004,4.579 L114.147,4.604 L114.252,3.488 Z M104.269,10.016 C102.942,10.016 102.227,8.858 102.227,6.662 C102.227,4.464 102.942,3.319 104.269,3.319 C105.595,3.319 106.31,4.464 106.31,6.662 C106.31,8.857 105.595,10.016 104.269,10.016 Z M104.269,10.339 C106.427,10.339 107.87,8.871 107.87,6.661 C107.87,4.463 106.427,2.996 104.269,2.996 C102.11,2.996 100.668,4.463 100.668,6.661 C100.668,8.871 102.11,10.339 104.269,10.339 Z M95.754,10.016 C95.194,10.016 94.713,9.834 94.284,9.482 L94.284,4.216 C94.726,3.787 95.207,3.579 95.728,3.579 C97.093,3.579 97.874,4.801 97.874,6.791 C97.874,8.702 97.119,10.016 95.754,10.016 Z M96.456,2.996 C95.65,2.996 94.882,3.294 94.245,3.93 L94.193,2.996 L94.063,2.996 L91.894,3.41 L91.894,3.54 L92.856,3.956 L92.856,12.315 L91.868,12.68 L91.868,12.808 L95.363,12.808 L95.363,12.68 L94.284,12.315 L94.284,9.834 C94.765,10.158 95.337,10.339 96.001,10.339 C98.133,10.339 99.432,8.702 99.432,6.453 C99.432,4.32 98.237,2.996 96.456,2.996 Z M90.28,9.717 L90.28,5.152 C90.28,3.852 89.345,2.997 88.006,2.997 C87.07,2.997 86.107,3.398 85.366,4.151 C85.016,3.437 84.263,2.997 83.313,2.997 C82.442,2.997 81.57,3.334 80.855,3.982 L80.803,2.997 L80.673,2.997 L78.504,3.412 L78.504,3.541 L79.466,3.957 L79.466,9.718 L78.478,10.082 L78.478,10.21 L81.961,10.21 L81.961,10.082 L80.894,9.718 L80.894,4.308 C81.336,3.892 81.856,3.645 82.52,3.645 C83.508,3.645 84.159,4.322 84.159,5.348 L84.159,9.718 L83.196,10.082 L83.196,10.21 L86.654,10.21 L86.654,10.082 L85.587,9.718 L85.587,5.153 C85.587,4.893 85.548,4.633 85.47,4.413 C85.938,3.932 86.484,3.645 87.2,3.645 C88.201,3.645 88.852,4.322 88.852,5.348 L88.852,9.718 L87.889,10.082 L87.889,10.21 L91.359,10.21 L91.359,10.082 L90.28,9.717 Z M72.405,8.455 C72.405,7.231 73.498,6.491 75.345,6.399 L75.345,9.026 C74.811,9.482 74.239,9.704 73.628,9.704 C72.86,9.704 72.405,9.287 72.405,8.455 Z M76.773,9.404 L76.773,5.153 C76.773,3.851 75.734,2.996 74.252,2.996 C73.264,2.996 72.236,3.346 71.496,3.851 L71.548,4.02 C72.132,3.773 72.743,3.643 73.524,3.643 C74.629,3.643 75.345,4.32 75.345,5.347 L75.345,6.155 C72.678,6.218 70.912,7.231 70.912,8.715 C70.912,9.743 71.743,10.339 72.964,10.339 C73.849,10.339 74.681,10.015 75.384,9.365 L75.579,10.339 L75.708,10.339 L77.852,9.924 L77.852,9.794 L76.773,9.404 Z M67.27,10.339 C68.531,10.339 69.467,10.08 70.117,9.795 L69.987,8.546 L69.844,8.585 L67.335,9.938 C65.528,9.925 64.462,8.248 64.462,5.4 C64.462,2.552 65.528,0.876 67.335,0.863 L69.753,2.305 L69.896,2.344 L69.987,1.005 C69.233,0.655 68.284,0.461 67.27,0.461 C64.579,0.461 62.787,2.435 62.787,5.399 C62.787,8.363 64.579,10.339 67.27,10.339 Z M53.113,8.455 C53.113,7.231 54.206,6.491 56.053,6.399 L56.053,9.026 C55.52,9.482 54.947,9.704 54.336,9.704 C53.569,9.704 53.113,9.287 53.113,8.455 Z M57.481,9.404 L57.481,5.153 C57.481,3.851 56.443,2.996 54.96,2.996 C53.972,2.996 52.945,3.346 52.204,3.851 L52.256,4.02 C52.841,3.773 53.452,3.643 54.232,3.643 C55.338,3.643 56.053,4.32 56.053,5.347 L56.053,6.155 C53.387,6.218 51.62,7.231 51.62,8.715 C51.62,9.743 52.451,10.339 53.673,10.339 C54.557,10.339 55.39,10.015 56.092,9.365 L56.287,10.339 L56.417,10.339 L58.56,9.924 L58.56,9.794 L57.481,9.404 Z M50.032,9.717 L50.032,5.152 C50.032,3.852 49.085,2.997 47.707,2.997 C46.809,2.997 45.899,3.347 45.171,3.996 L45.119,2.997 L44.989,2.997 L42.819,3.412 L42.819,3.541 L43.781,3.957 L43.781,9.718 L42.793,10.082 L42.793,10.21 L46.289,10.21 L46.289,10.082 L45.209,9.718 L45.209,4.32 C45.665,3.89 46.211,3.643 46.9,3.643 C47.928,3.643 48.604,4.32 48.604,5.346 L48.604,9.716 L47.629,10.08 L47.629,10.208 L51.111,10.208 L51.111,10.08 L50.032,9.717 Z M36.721,8.455 C36.721,7.231 37.813,6.491 39.66,6.399 L39.66,9.026 C39.127,9.482 38.555,9.704 37.943,9.704 C37.176,9.704 36.721,9.287 36.721,8.455 Z M41.089,9.404 L41.089,5.153 C41.089,3.851 40.05,2.996 38.568,2.996 C37.579,2.996 36.552,3.346 35.812,3.851 L35.864,4.02 C36.448,3.773 37.059,3.643 37.839,3.643 C38.945,3.643 39.66,4.32 39.66,5.347 L39.66,6.155 C36.994,6.218 35.227,7.231 35.227,8.715 C35.227,9.743 36.058,10.339 37.28,10.339 C38.164,10.339 38.997,10.015 39.699,9.365 L39.894,10.339 L40.024,10.339 L42.168,9.924 L42.168,9.794 L41.089,9.404 Z M33.588,9.717 L33.588,2.996 L33.458,2.996 L31.197,3.412 L31.197,3.542 L32.159,3.958 L32.159,9.717 L31.171,10.081 L31.171,10.209 L34.563,10.209 L34.563,10.081 L33.588,9.717 Z M32.874,1.732 C33.38,1.732 33.718,1.408 33.718,0.94 C33.718,0.472 33.38,0.162 32.874,0.162 C32.354,0.162 32.016,0.473 32.016,0.94 C32.016,1.407 32.354,1.732 32.874,1.732 Z M29.506,2.996 C28.596,2.996 27.764,3.45 27.101,4.294 L27.049,2.996 L26.919,2.996 L24.75,3.411 L24.75,3.541 L25.712,3.917 L25.712,9.717 L24.724,10.081 L24.724,10.209 L28.349,10.209 L28.349,10.081 L27.14,9.717 L27.14,4.606 C27.556,4.151 28.05,3.943 28.674,3.943 C29.376,3.943 29.935,4.177 30.286,4.542 L30.416,4.581 L30.598,3.283 C30.299,3.086 29.922,2.996 29.506,2.996 Z M18.651,8.455 C18.651,7.231 19.744,6.491 21.591,6.399 L21.591,9.026 C21.057,9.482 20.485,9.704 19.874,9.704 C19.106,9.704 18.651,9.287 18.651,8.455 Z M23.019,9.404 L23.019,5.153 C23.019,3.851 21.98,2.996 20.498,2.996 C19.509,2.996 18.482,3.346 17.742,3.851 L17.794,4.02 C18.378,3.773 18.989,3.643 19.77,3.643 C20.875,3.643 21.591,4.32 21.591,5.347 L21.591,6.155 C18.924,6.218 17.158,7.231 17.158,8.715 C17.158,9.743 17.989,10.339 19.21,10.339 C20.095,10.339 20.927,10.015 21.63,9.365 L21.824,10.339 L21.954,10.339 L24.098,9.924 L24.098,9.794 L23.019,9.404 Z M16.428,0.719 L16.428,0.591 L13.933,0.591 L10.384,7.077 L6.925,0.591 L4.145,0.591 L4.145,0.719 L5.393,1.083 L5.393,9.717 L4.145,10.081 L4.145,10.209 L7.315,10.209 L7.315,10.081 L5.872,9.717 L5.872,1.85 L9.513,8.676 L10.033,8.676 L13.713,1.941 L13.713,9.717 L12.256,10.081 L12.256,10.209 L16.428,10.209 L16.428,10.081 L15.245,9.717 L15.245,1.083 L16.428,0.719 Z" id="Shape" fill="#FFFFFF"></path>
            </g>
        </g>
    </g>
</svg>