<?xml version="1.0" encoding="utf-8"?>
<!-- Generator: Adobe Illustrator 16.0.0, SVG Export Plug-In . SVG Version: 6.00 Build 0)  -->
<!DOCTYPE svg PUBLIC "-//W3C//DTD SVG 1.1//EN" "http://www.w3.org/Graphics/SVG/1.1/DTD/svg11.dtd">
<svg version="1.1" id="astrologia" xmlns="http://www.w3.org/2000/svg" xmlns:xlink="http://www.w3.org/1999/xlink" x="0px" y="0px"
	 width="800px" height="399.98px" viewBox="-334.471 -167.162 800 399.98" enable-background="new -334.471 -167.162 800 399.98"
	 xml:space="preserve">
<g>
	<path fill="#FFB300" d="M-97.165,149.438l-4.145-10.008h-15.418l-4.059,10.008h-5.715l14.668-36.867h5.637l14.668,36.867H-97.165z
		 M-108.981,118.664l-6.172,16.094h12.266L-108.981,118.664z"/>
	<path fill="#FFB300" d="M-59.841,120.621c-1.883-1.277-2.715-1.656-4.512-2.184c-1.887-0.605-3.473-0.762-5.051-0.762
		c-4.586,0-7.383,1.668-7.383,4.453c0,0.758,0.164,1.43,0.469,1.883c1.059,1.586,2.258,2.254,9.262,5.641
		c6.75,3.312,8.953,5.789,8.953,10.23c0,6.406-4.969,10.238-13.102,10.238c-2.699,0-5.258-0.383-7.367-1.129
		c-1.504-0.609-2.559-1.137-5.117-2.703l2.559-4.895c2.258,1.656,3.242,2.25,4.668,2.855c1.812,0.758,3.922,1.199,5.949,1.199
		c4.215,0,6.688-1.805,6.688-4.805c0-2.418-1.191-3.984-4.055-5.348l-6.539-3.16c-5.496-2.633-7.988-5.645-7.988-9.484
		c0-5.953,5.121-9.785,13.098-9.785c2.336,0,4.664,0.301,6.703,0.902c1.656,0.453,2.555,0.895,4.809,2.105L-59.841,120.621z"/>
	<path fill="#FFB300" d="M-31.923,118.199v31.227h-5.66v-31.227h-12.773v-4.727h31.219v4.727H-31.923z"/>
	<path fill="#FFB300" d="M12.769,149.438l-9.496-14.68h-5.176v14.68h-5.723v-35.965H4.484c8.637,0,13.375,3.609,13.375,10.23
		c0,5.566-3.379,9.77-8.422,10.605l9.93,15.129H12.769z M9.538,119.192c-1.211-0.891-1.664-0.98-5.793-0.98h-5.641v11.816h5.641
		c3.676,0,4.422-0.148,6.012-1.5c1.348-1.203,1.957-2.645,1.957-4.598C11.714,121.817,10.952,120.231,9.538,119.192z"/>
	<path fill="#FFB300" d="M48.062,150.106c-11.586,0-19.941-7.82-19.941-18.66c0-10.758,8.352-18.652,19.941-18.652
		c11.512,0,19.934,7.895,19.934,18.652C67.984,142.285,59.566,150.106,48.062,150.106z M48.062,117.61
		c-7.898,0-13.926,5.949-13.926,13.84c0,7.906,6.027,13.918,13.926,13.918s13.836-6.012,13.836-13.918
		C61.89,123.547,55.96,117.61,48.062,117.61z"/>
	<path fill="#FFB300" d="M82.667,149.438v-35.965h5.73v31.211h17v4.742h-22.73V149.438z"/>
	<path fill="#FFB300" d="M132.554,150.106c-11.586,0-19.941-7.82-19.941-18.66c0-10.758,8.352-18.652,19.941-18.652
		c11.516,0,19.941,7.895,19.941,18.652C152.495,142.285,144.07,150.106,132.554,150.106z M132.554,117.61
		c-7.906,0-13.914,5.949-13.914,13.84c0,7.906,6.008,13.918,13.914,13.918c7.898,0,13.84-6.012,13.84-13.918
		C146.394,123.547,140.452,117.61,132.554,117.61z"/>
	<path fill="#FFB300" d="M194.859,148.832c-3.176,0.746-7.602,1.355-10.609,1.355c-12.336,0-21.438-8.047-21.438-18.805
		c0-10.613,8.863-18.516,20.898-18.516c2.875,0,6.25,0.383,8.281,0.84c1.801,0.449,2.867,0.887,5.348,2.168l-2.414,4.746
		c-1.137-0.68-1.957-1.141-2.477-1.363c-2.332-0.969-5.797-1.727-8.586-1.727c-8.641,0-15.043,5.785-15.043,13.551
		c0,8.191,7.07,14.355,16.316,14.355c1.812,0,3.398-0.141,6.93-0.75v-11.352h5.727V148
		C196.511,148.379,195.534,148.676,194.859,148.832z"/>
	<path fill="#FFB300" d="M215.632,149.438v-35.965h5.711v35.965H215.632z"/>
	<path fill="#FFB300" d="M262.882,149.438l-4.148-10.008H243.32l-4.07,10.008h-5.715l14.668-36.867h5.645l14.672,36.867H262.882z
		 M251.058,118.664l-6.168,16.094h12.277L251.058,118.664z"/>
</g>
</svg>
