<?xml version="1.0" encoding="utf-8"?>
<!-- Generator: Adobe Illustrator 16.0.0, SVG Export Plug-In . SVG Version: 6.00 Build 0)  -->
<!DOCTYPE svg PUBLIC "-//W3C//DTD SVG 1.1//EN" "http://www.w3.org/Graphics/SVG/1.1/DTD/svg11.dtd">
<svg version="1.1" id="Layer_1" xmlns="http://www.w3.org/2000/svg" xmlns:xlink="http://www.w3.org/1999/xlink" x="0px" y="0px"
	 width="200.01px" height="100px" viewBox="-34.476 -17.172 200.01 100" enable-background="new -34.476 -17.172 200.01 100"
	 xml:space="preserve">
<g>
	<path fill="#FFB300" d="M24.817,61.981l-1.036-2.502h-3.854l-1.015,2.502h-1.429l3.667-9.217h1.409l3.667,9.217H24.817z
		 M21.863,54.287l-1.543,4.023h3.066L21.863,54.287z"/>
	<path fill="#FFB300" d="M34.148,54.777c-0.471-0.319-0.679-0.414-1.128-0.546c-0.472-0.151-0.868-0.19-1.263-0.19
		c-1.146,0-1.846,0.417-1.846,1.113c0,0.189,0.041,0.357,0.117,0.471c0.265,0.396,0.564,0.563,2.315,1.41
		c1.688,0.828,2.238,1.447,2.238,2.558c0,1.602-1.242,2.56-3.275,2.56c-0.675,0-1.314-0.096-1.842-0.282
		c-0.376-0.152-0.64-0.284-1.279-0.676l0.64-1.224c0.564,0.414,0.811,0.562,1.167,0.714c0.453,0.189,0.98,0.3,1.487,0.3
		c1.054,0,1.672-0.451,1.672-1.201c0-0.604-0.298-0.996-1.014-1.337l-1.635-0.79c-1.374-0.658-1.997-1.411-1.997-2.371
		c0-1.488,1.28-2.446,3.274-2.446c0.584,0,1.166,0.075,1.676,0.226c0.414,0.113,0.639,0.224,1.202,0.526L34.148,54.777z"/>
	<path fill="#FFB300" d="M41.127,54.171v7.807h-1.415v-7.807h-3.193V52.99h7.805v1.182H41.127z"/>
	<path fill="#FFB300" d="M52.3,61.981l-2.374-3.67h-1.294v3.67h-1.431V52.99h3.027c2.159,0,3.344,0.902,3.344,2.558
		c0,1.392-0.845,2.442-2.105,2.651l2.482,3.782H52.3z M51.492,54.419c-0.303-0.223-0.416-0.245-1.448-0.245h-1.41v2.954h1.41
		c0.919,0,1.105-0.037,1.503-0.375c0.337-0.301,0.489-0.661,0.489-1.149C52.036,55.075,51.846,54.679,51.492,54.419z"/>
	<path fill="#FFB300" d="M61.123,62.148c-2.896,0-4.985-1.955-4.985-4.665c0-2.689,2.088-4.663,4.985-4.663
		c2.878,0,4.983,1.974,4.983,4.663C66.104,60.193,63.999,62.148,61.123,62.148z M61.123,54.024c-1.975,0-3.481,1.487-3.481,3.46
		c0,1.977,1.507,3.479,3.481,3.479s3.459-1.503,3.459-3.479C64.58,55.508,63.098,54.024,61.123,54.024z"/>
	<path fill="#FFB300" d="M69.775,61.981V52.99h1.433v7.803h4.25v1.186h-5.683V61.981z"/>
	<path fill="#FFB300" d="M82.246,62.148c-2.896,0-4.985-1.955-4.985-4.665c0-2.689,2.088-4.663,4.985-4.663
		c2.879,0,4.985,1.974,4.985,4.663C87.232,60.193,85.125,62.148,82.246,62.148z M82.246,54.024c-1.977,0-3.479,1.487-3.479,3.46
		c0,1.977,1.502,3.479,3.479,3.479c1.975,0,3.46-1.503,3.46-3.479C85.706,55.508,84.221,54.024,82.246,54.024z"/>
	<path fill="#FFB300" d="M97.823,61.829c-0.794,0.187-1.9,0.339-2.652,0.339c-3.084,0-5.359-2.012-5.359-4.701
		c0-2.653,2.216-4.629,5.225-4.629c0.719,0,1.562,0.096,2.07,0.21c0.45,0.112,0.717,0.222,1.337,0.542l-0.604,1.187
		c-0.284-0.17-0.489-0.285-0.619-0.341c-0.583-0.242-1.449-0.432-2.146-0.432c-2.16,0-3.761,1.446-3.761,3.388
		c0,2.048,1.768,3.589,4.079,3.589c0.453,0,0.85-0.035,1.732-0.188v-2.838h1.432v3.666C98.236,61.716,97.991,61.79,97.823,61.829z"
		/>
	<path fill="#FFB300" d="M103.016,61.981V52.99h1.428v8.991H103.016z"/>
	<path fill="#FFB300" d="M114.828,61.981l-1.037-2.502h-3.854l-1.018,2.502h-1.429l3.667-9.217h1.411l3.668,9.217H114.828z
		 M111.872,54.287l-1.542,4.023h3.069L111.872,54.287z"/>
</g>
</svg>
