<?xml version="1.0" encoding="utf-8"?>
<!-- Generator: Adobe Illustrator 16.0.0, SVG Export Plug-In . SVG Version: 6.00 Build 0)  -->
<!DOCTYPE svg PUBLIC "-//W3C//DTD SVG 1.1//EN" "http://www.w3.org/Graphics/SVG/1.1/DTD/svg11.dtd">
<svg version="1.1" id="Layer_1" xmlns="http://www.w3.org/2000/svg" xmlns:xlink="http://www.w3.org/1999/xlink" x="0px" y="0px"
	 width="200.01px" height="100px" viewBox="-34.476 -17.172 200.01 100" enable-background="new -34.476 -17.172 200.01 100"
	 xml:space="preserve">
<g>
	<path fill="#FFB300" d="M-3.778,44.317v0.444h-15.221v-0.444l2.048-1.245V14.235l-1.957-1.111v-0.444l12.637-3.962h0.445v34.354
		L-3.778,44.317z"/>
	<path fill="#FFB300" d="M28.217,42.317v0.443l-10.192,2.447H17.58l-2.179-3.826c-3.025,2.49-6.231,3.826-8.99,3.826
		c-3.962,0-6.986-2.71-6.986-6.851V23.759l-1.958-1.335V21.98l12.638-2.448h0.446v17.666c0,1.959,0.89,3.206,2.225,3.206
		c0.889,0,1.556-0.223,2.178-0.578V23.758l-1.956-1.335v-0.444l12.639-2.449h0.442v21.586L28.217,42.317z"/>
	<path fill="#FFB300" d="M55.54,44.317v0.444H29.242l-0.134-0.444l13.038-22.694h-2.894l-8.232,5.252h-0.444l-0.49-6.454v-0.446
		h25.009l0.134,0.446L42.235,43.115h4.094l8.453-4.939h0.404L55.54,44.317z"/>
	<path fill="#FFB300" d="M82.286,39.246l0.488,0.487c-3.114,3.07-6.806,5.473-13.261,5.473c-7.608,0-12.548-5.074-12.548-12.682
		c0-7.79,5.695-12.996,14.106-12.996c7.344,0,12.146,4.853,12.146,12.106H68.134v0.132c0,4.806,2.76,8.988,7.655,8.988
		C77.748,40.755,80.551,40.268,82.286,39.246z M68.134,30.569l4.142-0.49c0-6.81-0.357-8.9-1.872-8.9
		C68.625,21.177,68.18,23.758,68.134,30.569z"/>
	<path fill="#FFB300" d="M100.087,44.317v0.444H84.869v-0.444l2.046-1.245V23.803l-1.961-1.336v-0.443l12.641-2.494h0.446v23.542
		L100.087,44.317z M86.38,12.813c0-3.159,2.403-5.252,6.097-5.252c3.604,0,6.008,2.093,6.008,5.252c0,3.249-2.402,5.34-6.008,5.34
		C88.784,18.153,86.38,16.062,86.38,12.813z"/>
	<path fill="#FFB300" d="M125.361,20.333l-1.021,8.277l-0.536-0.134c-0.891-1.025-3.026-1.96-6.142-1.96
		c-1.022,0-1.911,0.091-2.67,0.314V42.85l2.583,1.468v0.446h-15.754v-0.446l2.046-1.245V23.98l-1.955-1.513v-0.443l11.527-2.494
		h0.443l0.713,5.03c2.713-3.34,5.563-5.03,7.699-5.03C123.495,19.53,124.562,19.843,125.361,20.333z"/>
	<path fill="#FFB300" d="M152.553,42.317v0.443l-10.236,2.447h-0.443l-2.049-3.515c-2.533,2.269-5.472,3.515-8.007,3.515
		c-4.23,0-6.943-2.357-6.943-5.382c0-5.163,5.651-8.68,14.416-9.124v-3.116c0-2.269-2.401-3.827-6.095-3.827
		c-2.137,0-3.829,0.312-6.273,0.936l-0.181-0.669c3.916-2.669,8.991-4.492,13.173-4.492c6.011,0,10.504,2.714,10.504,6.852v14.731
		L152.553,42.317z M138.135,40.846c0.401,0,0.801-0.091,1.156-0.223v-8.677c-2.268,0.712-3.603,2.626-3.603,5.475
		C135.688,38.889,136.089,40.846,138.135,40.846z"/>
</g>
</svg>
